<svg version="1.1" id="Layer_1" xmlns="http://www.w3.org/2000/svg" xmlns:xlink="http://www.w3.org/1999/xlink" x="0px" y="0px"
	 width="100%" viewBox="0 0 310 163" enable-background="new 0 0 310 163" xml:space="preserve">
<path fill="#FDFDFD" opacity="1.000000" stroke="none" 
	d="
M185.000000,164.000000 
	C123.333344,164.000000 62.166679,164.000000 1.000016,164.000000 
	C1.000011,109.666679 1.000011,55.333363 1.000005,1.000031 
	C104.333305,1.000021 207.666611,1.000021 310.999939,1.000010 
	C310.999939,55.333302 310.999939,109.666603 310.999969,163.999954 
	C269.166656,164.000000 227.333328,164.000000 185.000000,164.000000 
M156.488113,97.830894 
	C156.762039,97.636925 156.938812,97.376907 156.994339,97.005844 
	C156.994339,97.005844 157.043121,97.020752 157.779556,96.929649 
	C160.186584,93.286232 162.593597,89.642815 165.108353,86.273560 
	C165.192703,86.322815 165.277039,86.372063 165.361389,86.421310 
	C165.240723,86.281029 165.120056,86.140747 165.040924,85.476379 
	C165.639664,84.294174 166.238403,83.111969 167.085480,81.279518 
	C168.731033,78.187866 170.376587,75.096214 172.620529,71.683136 
	C174.100327,68.806946 175.580109,65.930756 177.740402,62.905277 
	C180.075699,58.560925 182.410995,54.216568 185.237534,48.958374 
	C181.189850,48.958374 178.086838,48.958374 174.469788,48.974178 
	C174.301193,49.005226 174.132614,49.036278 173.308792,48.931873 
	C172.868759,48.863716 172.428741,48.795555 171.596848,48.312466 
	C170.739868,48.440262 169.882874,48.568058 168.171402,48.827099 
	C166.444656,48.788998 164.717896,48.750893 162.682983,48.340614 
	C162.125153,48.454433 161.567322,48.568253 160.335037,48.788219 
	C159.890076,48.873016 159.445114,48.957809 158.504562,48.833401 
	C158.333282,48.780380 158.161987,48.727364 157.664703,48.305882 
	C157.108551,48.465710 156.552399,48.625538 155.500336,48.944862 
	C155.338699,49.008308 155.177048,49.071754 154.268372,49.038345 
	C146.495605,50.966511 140.643127,55.125881 137.506027,63.530258 
	C136.608490,66.628296 135.710938,69.726334 134.279587,73.313690 
	C133.522705,75.884346 132.765808,78.455002 131.636765,81.226013 
	C131.373581,81.419243 131.298035,81.669106 131.271988,82.630096 
	C131.246582,83.074356 131.221191,83.518616 130.800171,84.601555 
	C130.499756,86.032257 130.199341,87.462952 129.187332,89.127335 
	C128.786362,90.486786 128.605988,91.968628 127.934883,93.178207 
	C126.809875,95.205887 125.372147,97.060066 123.809090,98.322723 
	C122.887405,96.178841 121.965721,94.034950 121.103340,91.135765 
	C120.686180,89.430092 120.269020,87.724419 119.888130,85.241104 
	C118.920845,81.830635 117.953552,78.420158 117.074654,74.218422 
	C114.496002,65.294678 112.363998,56.008240 100.835915,54.190933 
	C100.835915,54.190933 100.720825,54.141319 100.639931,53.712593 
	C100.449966,53.444118 100.193619,53.341805 99.345711,52.930481 
	C97.210274,52.005695 95.074844,51.080914 92.093803,49.956875 
	C89.783974,49.997154 87.474144,50.037434 84.254044,49.900291 
	C77.835243,49.956367 71.416435,50.012447 64.118523,49.994331 
	C62.057930,49.992950 59.997341,49.991573 57.386326,49.723244 
	C56.593800,50.160503 55.801273,50.597763 54.663345,51.407093 
	C54.502705,51.460308 54.342060,51.513523 53.828339,50.869400 
	C48.868870,49.626640 46.207615,51.627991 46.707504,56.541634 
	C45.780308,57.348930 44.853111,58.156231 43.394588,58.767853 
	C42.926575,59.502789 42.458565,60.237724 41.800034,61.433338 
	C41.599739,61.716209 41.333344,61.906605 40.537712,61.999702 
	C40.346901,62.329060 40.156090,62.658417 39.870770,63.572403 
	C39.585411,64.051666 39.300053,64.530922 38.293674,65.089897 
	C37.552135,66.417854 36.810593,67.745804 36.181618,69.119865 
	C36.181618,69.119865 36.164490,69.240295 35.515484,69.408569 
	C31.312704,77.252357 27.109924,85.096146 22.382113,93.352173 
	C21.624256,95.219955 20.866402,97.087738 19.758556,99.608658 
	C18.813515,102.736801 17.868475,105.864952 16.284357,109.095818 
	C15.879436,109.771980 15.474514,110.448143 15.091110,111.707550 
	C15.086069,112.096573 15.081029,112.485588 14.973198,113.562675 
	C15.291197,114.731773 15.609196,115.900871 15.997496,117.842773 
	C16.890444,118.563782 17.741919,119.837784 18.683643,119.908417 
	C22.414770,120.188232 26.222631,120.484451 29.910067,120.029327 
	C34.003036,119.524162 38.030422,118.320541 41.994457,117.118042 
	C42.588615,116.937805 42.681335,115.104584 43.395458,113.502579 
	C45.321743,112.020493 47.248028,110.538406 49.886707,109.126106 
	C51.125423,109.343811 52.364140,109.561516 53.602859,109.779221 
	C53.762066,109.253334 53.921272,108.727455 54.080479,108.201576 
	C52.987118,107.781464 51.893757,107.361359 50.934963,106.293472 
	C51.364666,105.293526 51.794369,104.293579 52.741901,102.937447 
	C54.631477,95.906967 56.521057,88.876488 58.831955,81.269699 
	C59.875137,79.167458 60.918320,77.065208 62.527428,74.604103 
	C66.348434,70.741402 70.169441,66.878700 74.116333,63.028709 
	C74.116333,63.028709 74.172264,62.915207 74.209702,63.690731 
	C75.546959,68.425301 76.884216,73.159859 78.095169,78.688438 
	C79.034569,82.139053 79.973961,85.589676 80.956367,89.725464 
	C81.242485,90.565666 81.528603,91.405876 81.858421,93.009018 
	C82.464935,94.692665 83.071449,96.376312 83.725334,98.708992 
	C85.827431,102.424294 87.929527,106.139603 90.166252,110.564034 
	C94.342087,114.749771 99.490166,115.559441 105.989700,115.016434 
	C116.510811,114.949608 127.031914,114.882782 138.359406,114.931046 
	C141.856339,113.773827 145.231720,112.175674 149.000000,112.000000 
	C149.000000,112.000000 149.001221,112.000984 149.460632,112.536491 
	C151.124802,112.421021 152.788971,112.305550 154.149368,112.211159 
	C154.149368,109.038177 154.149368,106.605324 154.149368,104.172470 
	C154.571167,104.117210 154.992966,104.061951 155.414764,104.006691 
	C154.688828,103.356552 153.962891,102.706413 153.478256,101.504341 
	C154.039154,100.667915 154.600037,99.831490 155.541641,98.770119 
	C155.778351,98.576073 155.934464,98.330734 156.008560,97.991364 
	C156.008560,97.991364 156.044678,98.014305 156.488113,97.830894 
M267.223633,53.054287 
	C262.468262,54.847580 260.721863,57.857422 262.063629,61.947136 
	C263.200897,65.413376 266.445801,66.475403 271.613342,64.622093 
	C275.641876,58.571621 274.255981,54.223698 267.223633,53.054287 
M280.399170,53.449387 
	C279.699310,52.006954 278.999451,50.564522 278.299561,49.122089 
	C278.135773,51.531773 274.663239,52.854904 276.691223,56.501343 
	C277.971954,58.804192 276.930206,62.398685 276.930206,65.413818 
	C277.631683,65.392105 278.333160,65.370384 279.034637,65.348663 
	C279.034637,62.914677 278.833618,60.456470 279.122559,58.057274 
	C279.259552,56.919876 280.332581,55.895214 281.850952,54.711800 
	C287.093018,55.043747 284.493164,59.037762 284.774048,61.431076 
	C285.263733,65.603943 285.732666,66.135620 289.734985,64.890022 
	C285.828461,62.408829 285.814362,56.632282 289.268524,54.238102 
	C288.112823,52.837326 286.965851,51.447182 286.486389,50.866035 
	C284.500488,51.961174 282.760468,52.920715 280.399170,53.449387 
M215.736847,104.803352 
	C216.989334,106.760902 218.507736,108.600639 219.438248,110.700844 
	C221.303024,114.909676 224.311661,116.128296 228.690948,114.858971 
	C228.690948,100.369621 228.690948,85.822945 228.690948,70.953125 
	C226.869644,71.050095 225.339386,71.131561 223.744568,71.216469 
	C223.744568,83.534599 223.744568,95.295578 223.744568,107.906914 
	C222.396942,105.984283 221.435898,104.713394 220.579636,103.375458 
	C214.589539,94.015640 208.381561,84.782600 202.758911,75.206253 
	C200.375656,71.147179 197.676682,70.090172 193.341949,71.474274 
	C193.341949,85.885422 193.341949,100.304794 193.341949,114.877686 
	C195.034576,114.877686 196.554962,114.877686 198.254669,114.877686 
	C198.254669,102.804367 198.254669,91.065468 198.254669,77.896011 
	C204.401367,87.395355 209.846664,95.810753 215.736847,104.803352 
M242.771881,70.982864 
	C241.502640,71.064262 240.233414,71.145653 238.868332,71.233192 
	C238.868332,85.973991 238.868332,100.413643 238.868332,114.960846 
	C246.665604,114.960846 254.254150,114.960846 262.045380,114.960846 
	C261.948303,113.441345 261.868622,112.193886 261.765503,110.579880 
	C255.745148,110.579880 249.980331,110.579880 244.042892,110.579880 
	C244.042892,105.283508 244.042892,100.373894 244.042892,95.064964 
	C249.354446,95.064964 254.455139,95.064964 259.969269,95.064964 
	C259.742767,93.290939 259.573792,91.967537 259.369415,90.366890 
	C253.995605,90.366890 249.075699,90.366890 244.186920,90.366890 
	C244.186920,85.299309 244.186920,80.581863 244.186920,75.656013 
	C249.855759,75.656013 255.153275,75.656013 260.732300,75.656013 
	C260.732300,74.060188 260.732300,72.687302 260.732300,70.982330 
	C254.987778,70.982330 249.353027,70.982330 242.771881,70.982864 
M279.724426,111.166504 
	C279.803009,112.432060 279.881561,113.697617 279.963745,115.021080 
	C281.724060,115.021080 283.163025,115.021080 285.014526,115.021080 
	C285.014526,101.930450 285.014526,89.013840 285.014526,75.643570 
	C289.310364,75.643570 293.208984,75.643570 297.503693,75.643570 
	C297.345520,73.778946 297.229828,72.415382 297.125824,71.189491 
	C286.826843,71.189491 277.042542,71.189491 266.965363,71.189491 
	C267.058929,72.814064 267.137970,74.186569 267.240173,75.961441 
	C271.533020,75.961441 275.460663,75.961441 279.725250,75.961441 
	C279.725250,87.668159 279.725250,98.950851 279.724426,111.166504 
M210.434570,59.283554 
	C210.434570,55.838791 210.434570,52.394024 210.434570,47.949371 
	C205.722366,50.437336 205.359039,53.907646 205.079529,57.529617 
	C206.026779,56.414501 206.878708,55.411587 208.819611,53.126709 
	C208.819611,58.226673 208.819611,61.869091 208.819611,65.511505 
	C209.357681,65.482597 209.895752,65.453690 210.433823,65.424782 
	C210.433823,63.676102 210.433823,61.927425 210.434570,59.283554 
M250.022873,56.500576 
	C248.093689,52.974449 245.238831,52.125511 241.699615,53.832424 
	C238.085266,55.575573 237.878006,59.136082 239.151672,61.902958 
	C240.001694,63.749512 243.044571,65.640297 245.112289,65.647194 
	C249.077255,65.660423 250.521683,62.483368 250.377121,58.706562 
	C250.358307,58.214920 250.219894,57.727859 250.022873,56.500576 
M193.110016,63.771347 
	C193.431808,64.383217 193.753601,64.995079 194.075394,65.606949 
	C194.409286,65.555016 194.743179,65.503082 195.077072,65.451149 
	C195.077072,61.690411 195.077072,57.929676 195.077072,52.971336 
	C196.749008,55.453896 197.649414,56.790859 198.549820,58.127823 
	C198.932678,57.874603 199.315536,57.621384 199.698410,57.368168 
	C197.583542,54.610630 198.629562,49.828259 193.100052,48.442863 
	C193.100052,53.695995 193.100052,58.298714 193.110016,63.771347 
M255.175430,53.241665 
	C247.681458,58.620049 257.566437,59.590363 257.993225,63.447147 
	C255.925491,63.737564 254.120224,63.991116 252.314941,64.244667 
	C252.395660,64.745911 252.476379,65.247147 252.557098,65.748383 
	C254.774536,65.287369 257.948608,65.590973 259.037842,64.228203 
	C262.993347,59.279510 254.874969,59.639709 254.839783,55.753433 
	C256.224762,55.314804 257.596649,54.880306 258.968567,54.445808 
	C258.957611,54.172810 258.946655,53.899807 258.935699,53.626804 
	C257.930725,53.445122 256.925781,53.263435 255.175430,53.241665 
M184.991318,110.361313 
	C183.267578,110.262444 181.396576,109.745972 179.894455,110.275627 
	C179.314819,110.480011 179.058640,113.307167 179.620560,114.474747 
	C180.030029,115.325615 182.844452,116.097084 183.157959,115.719070 
	C184.203033,114.458878 184.604279,112.664749 184.991318,110.361313 
M44.596935,120.135139 
	C41.975887,119.832428 39.354836,119.529716 36.733788,119.227005 
	C36.720448,119.724182 36.707104,120.221352 36.693764,120.718521 
	C39.444679,120.718521 42.195599,120.718521 44.596935,120.135139 
M293.128662,54.420200 
	C293.550751,54.665691 293.972839,54.911182 294.394928,55.156681 
	C294.214996,54.395958 294.035065,53.635235 293.855164,52.874516 
	C293.611755,53.171593 293.368317,53.468670 293.128662,54.420200 
M48.201633,115.608063 
	C48.205849,115.214104 48.210064,114.820137 48.214279,114.426178 
	C48.050785,114.424675 47.745197,114.412201 47.744343,114.423256 
	C47.714069,114.815231 47.712360,115.209412 48.201633,115.608063 
M35.710190,63.560947 
	C35.992241,63.291927 36.276966,63.025394 36.541435,62.740078 
	C36.548313,62.732666 36.333733,62.519978 36.222424,62.403015 
	C35.940319,62.672512 35.658211,62.942005 35.710190,63.560947 
M55.434372,105.704514 
	C55.705631,105.988731 55.976894,106.272949 56.248158,106.557159 
	C56.365715,106.444740 56.591679,106.240768 56.585194,106.233093 
	C56.332073,105.933372 56.057774,105.651535 55.434372,105.704514 
M157.468964,103.238731 
	C157.596588,102.848663 157.745255,102.463280 157.833969,102.064545 
	C157.851593,101.985336 157.639404,101.855003 157.533203,101.748245 
	C157.405869,102.138252 157.278519,102.528267 157.468964,103.238731 
z"/>
<path fill="#0C0C0C" opacity="1.000000" stroke="none" 
	d="
M215.514404,104.514748 
	C209.846664,95.810753 204.401367,87.395355 198.254669,77.896011 
	C198.254669,91.065468 198.254669,102.804367 198.254669,114.877686 
	C196.554962,114.877686 195.034576,114.877686 193.341949,114.877686 
	C193.341949,100.304794 193.341949,85.885422 193.341949,71.474274 
	C197.676682,70.090172 200.375656,71.147179 202.758911,75.206253 
	C208.381561,84.782600 214.589539,94.015640 220.579636,103.375458 
	C221.435898,104.713394 222.396942,105.984283 223.744568,107.906914 
	C223.744568,95.295578 223.744568,83.534599 223.744568,71.216469 
	C225.339386,71.131561 226.869644,71.050095 228.690948,70.953125 
	C228.690948,85.822945 228.690948,100.369621 228.690948,114.858971 
	C224.311661,116.128296 221.303024,114.909676 219.438248,110.700844 
	C218.507736,108.600639 216.989334,106.760902 215.514404,104.514748 
z"/>
<path fill="#0A0A0A" opacity="1.000000" stroke="none" 
	d="
M243.245087,70.982597 
	C249.353027,70.982330 254.987778,70.982330 260.732300,70.982330 
	C260.732300,72.687302 260.732300,74.060188 260.732300,75.656013 
	C255.153275,75.656013 249.855759,75.656013 244.186920,75.656013 
	C244.186920,80.581863 244.186920,85.299309 244.186920,90.366890 
	C249.075699,90.366890 253.995605,90.366890 259.369415,90.366890 
	C259.573792,91.967537 259.742767,93.290939 259.969269,95.064964 
	C254.455139,95.064964 249.354446,95.064964 244.042892,95.064964 
	C244.042892,100.373894 244.042892,105.283508 244.042892,110.579880 
	C249.980331,110.579880 255.745148,110.579880 261.765503,110.579880 
	C261.868622,112.193886 261.948303,113.441345 262.045380,114.960846 
	C254.254150,114.960846 246.665604,114.960846 238.868332,114.960846 
	C238.868332,100.413643 238.868332,85.973991 238.868332,71.233192 
	C240.233414,71.145653 241.502640,71.064262 243.245087,70.982597 
z"/>
<path fill="#0B0B0B" opacity="1.000000" stroke="none" 
	d="
M279.724854,110.700027 
	C279.725250,98.950851 279.725250,87.668159 279.725250,75.961441 
	C275.460663,75.961441 271.533020,75.961441 267.240173,75.961441 
	C267.137970,74.186569 267.058929,72.814064 266.965363,71.189491 
	C277.042542,71.189491 286.826843,71.189491 297.125824,71.189491 
	C297.229828,72.415382 297.345520,73.778946 297.503693,75.643570 
	C293.208984,75.643570 289.310364,75.643570 285.014526,75.643570 
	C285.014526,89.013840 285.014526,101.930450 285.014526,115.021080 
	C283.163025,115.021080 281.724060,115.021080 279.963745,115.021080 
	C279.881561,113.697617 279.803009,112.432060 279.724854,110.700027 
z"/>
<path fill="#057FC0" opacity="1.000000" stroke="none" 
	d="
M54.181419,51.566742 
	C54.342060,51.513523 54.502705,51.460308 55.155098,51.220287 
	C56.410152,50.685719 57.173450,50.337955 57.936749,49.990196 
	C59.997341,49.991573 62.057930,49.992950 64.799438,50.258644 
	C68.007828,52.296036 70.535301,54.069118 73.160416,56.157589 
	C75.506943,57.981823 77.755821,59.490665 80.136856,61.322540 
	C80.513084,62.763554 80.757156,63.881531 80.891235,65.263138 
	C80.513496,66.031502 80.245758,66.536247 79.710838,66.846573 
	C78.462502,64.914223 77.481346,63.176285 76.496971,61.432644 
	C75.504761,62.065418 74.838516,62.490314 74.172264,62.915207 
	C74.172264,62.915207 74.116333,63.028709 74.040428,62.668655 
	C73.232063,60.906223 72.499596,59.503845 71.660919,57.898109 
	C69.730888,59.112785 68.124084,60.124035 66.057358,61.098160 
	C62.511398,61.340378 59.408009,61.496735 56.343594,61.929218 
	C52.223103,62.510742 48.132687,63.305351 44.169827,63.704319 
	C46.539017,60.234116 48.767738,57.068092 51.141396,53.654160 
	C52.251358,52.793083 53.216389,52.179913 54.181419,51.566742 
z"/>
<path fill="#048CCF" opacity="1.000000" stroke="none" 
	d="
M162.991150,48.712788 
	C164.717896,48.750893 166.444656,48.788998 168.962128,48.859375 
	C170.498123,48.836899 171.243423,48.782146 171.988708,48.727394 
	C172.428741,48.795555 172.868759,48.863716 173.563416,49.330837 
	C172.800827,52.778805 171.783585,55.827812 170.481445,59.055309 
	C168.439819,62.146957 166.683121,65.060112 164.692566,67.977493 
	C164.458694,67.981720 163.989868,68.000580 163.625732,67.955429 
	C159.839096,66.605507 156.416565,65.300728 152.995911,63.608330 
	C154.998566,58.494675 156.999359,53.768639 159.000153,49.042603 
	C159.445114,48.957809 159.890076,48.873016 160.995392,48.842567 
	C162.100876,48.835537 162.546021,48.774162 162.991150,48.712788 
z"/>
<path fill="#0DAFE8" opacity="1.000000" stroke="none" 
	d="
M116.986267,75.009682 
	C117.953552,78.420158 118.920845,81.830635 119.594566,85.760742 
	C117.378769,86.848389 115.456535,87.416382 113.526634,87.986641 
	C112.275581,89.121010 110.689850,90.558838 109.069778,91.660431 
	C108.701187,90.545403 108.366936,89.766602 108.020126,88.602112 
	C106.347878,83.146950 104.688194,78.077484 103.027435,72.633102 
	C103.009460,71.508553 102.992569,70.758934 102.952324,69.687996 
	C102.310852,68.891914 101.692741,68.417152 101.056221,67.942200 
	C101.037819,67.942017 101.040802,67.978699 101.048279,67.615112 
	C101.062195,66.523041 101.068626,65.794571 101.520035,65.051117 
	C103.482658,65.010849 105.000305,64.985565 106.711029,65.233650 
	C108.045044,67.894646 108.704941,70.767258 110.473839,72.521744 
	C111.982773,74.018372 114.766479,74.229752 116.986267,75.009682 
z"/>
<path fill="#0699D6" opacity="1.000000" stroke="none" 
	d="
M155.160919,98.995056 
	C154.600037,99.831490 154.039154,100.667915 153.056412,101.954620 
	C150.737122,103.568604 148.839691,104.732315 146.828812,105.598068 
	C147.153793,103.535309 147.592209,101.770515 148.305191,99.806808 
	C149.388367,97.739243 150.196976,95.870598 151.292892,93.862778 
	C152.064362,92.828987 152.548523,91.934380 153.302124,90.825378 
	C154.710938,87.743362 155.850281,84.875748 157.128311,81.698761 
	C158.840546,78.931450 160.414078,76.473518 162.248993,74.128471 
	C163.218445,74.133316 163.924713,73.958145 164.635117,73.939491 
	C165.158798,73.925751 165.687851,74.116402 166.195160,74.595230 
	C165.536713,77.393997 164.897629,79.813507 164.210144,82.586418 
	C161.788864,87.633461 159.416000,92.327110 157.043121,97.020752 
	C157.043121,97.020752 156.994339,97.005844 156.780121,97.113739 
	C156.286453,97.416344 156.112717,97.680565 156.044678,98.014305 
	C156.044678,98.014305 156.008560,97.991364 155.749634,98.044098 
	C155.380783,98.396233 155.270844,98.695648 155.160919,98.995056 
z"/>
<path fill="#09A2DE" opacity="1.000000" stroke="none" 
	d="
M61.961502,74.962967 
	C60.918320,77.065208 59.875137,79.167458 58.333984,81.675652 
	C55.569115,85.723839 53.302223,89.366074 50.759052,93.013451 
	C50.298637,93.023819 50.114502,93.029037 49.591042,93.089081 
	C45.824734,97.433731 45.314632,97.578522 42.916611,94.572922 
	C44.040623,91.475166 45.119408,88.759392 46.489525,85.908920 
	C47.875237,84.217735 48.969620,82.661247 50.362061,80.927231 
	C51.747055,79.165329 52.669807,77.426727 53.970001,76.042709 
	C55.125732,74.812462 56.699959,73.975365 58.368637,73.049454 
	C59.752373,73.743767 60.856937,74.353371 61.961502,74.962967 
z"/>
<path fill="#0468B3" opacity="1.000000" stroke="none" 
	d="
M137.553024,114.815956 
	C127.031914,114.882782 116.510811,114.949608 105.533157,114.763428 
	C105.076607,114.510422 105.094208,114.164299 105.405914,114.110733 
	C106.442177,113.725922 107.166740,113.394676 108.287918,113.040863 
	C111.452652,111.678749 114.220772,110.339226 117.309296,108.962608 
	C118.097992,108.295753 118.566284,107.665985 119.065178,106.799881 
	C119.095779,106.563538 119.138901,106.088860 119.466797,106.023376 
	C121.197220,105.292801 122.599731,104.627708 124.291397,104.140068 
	C125.692024,106.184700 126.803497,108.051880 128.082642,110.268875 
	C130.211685,116.628563 134.473709,113.313599 137.992065,113.262192 
	C137.994247,113.502716 138.002838,113.983696 137.871460,114.181534 
	C137.740097,114.379379 137.553024,114.815956 137.553024,114.815956 
z"/>
<path fill="#5CCAF0" opacity="1.000000" stroke="none" 
	d="
M117.030457,74.614052 
	C114.766479,74.229752 111.982773,74.018372 110.473839,72.521744 
	C108.704941,70.767258 108.045044,67.894646 106.585052,64.877106 
	C104.826111,61.840618 103.386230,59.434052 101.884796,56.738640 
	C101.515488,55.733109 101.207741,55.016411 100.899986,54.299717 
	C112.363998,56.008240 114.496002,65.294678 117.030457,74.614052 
z"/>
<path fill="#10A1DB" opacity="1.000000" stroke="none" 
	d="
M50.996460,53.902069 
	C48.767738,57.068092 46.539017,60.234116 44.015041,64.011734 
	C41.787888,68.403625 39.855984,72.183929 37.674461,76.167213 
	C36.934078,77.568985 36.443310,78.767769 35.801300,80.266502 
	C34.118904,83.057335 32.587757,85.548218 30.898090,88.342239 
	C29.469433,90.761612 28.199293,92.877846 26.905930,94.590393 
	C27.190163,92.908699 27.356867,91.576065 27.828270,90.361710 
	C30.567318,83.305832 33.378014,76.277763 36.164490,69.240295 
	C36.164490,69.240295 36.181618,69.119865 36.424168,68.966156 
	C37.449375,67.545036 38.232037,66.277611 39.014694,65.010185 
	C39.300053,64.530922 39.585411,64.051666 40.170891,63.213127 
	C40.647625,62.570740 40.824234,62.287632 41.000847,62.004524 
	C41.333344,61.906605 41.599739,61.716209 42.166260,61.102085 
	C42.996964,60.168400 43.461437,59.565964 43.925911,58.963528 
	C44.853111,58.156231 45.780308,57.348930 47.173019,56.176773 
	C48.757843,55.175297 49.877151,54.538685 50.996460,53.902069 
z"/>
<path fill="#039FDD" opacity="1.000000" stroke="none" 
	d="
M119.138901,106.088860 
	C119.138901,106.088860 119.095779,106.563538 118.703369,106.793671 
	C117.829102,107.054779 117.347260,107.085739 116.611847,106.970474 
	C115.628746,106.183601 114.899216,105.542969 114.091278,104.570862 
	C113.642036,103.164551 113.271210,102.089714 112.885010,100.658188 
	C111.598564,98.527763 110.327492,96.754028 109.050659,94.607002 
	C109.011307,93.486931 108.977722,92.740158 108.984100,91.995468 
	C109.024071,91.997551 109.104111,91.996666 109.104111,91.996666 
	C110.689850,90.558838 112.275581,89.121010 113.526634,87.986641 
	C115.456535,87.416382 117.378769,86.848389 119.576431,86.149567 
	C120.269020,87.724419 120.686180,89.430092 120.906021,91.849556 
	C116.963676,94.336769 116.107445,97.198837 117.480530,100.960823 
	C118.096062,102.647270 118.589859,104.378143 119.138901,106.088860 
z"/>
<path fill="#13A4E0" opacity="1.000000" stroke="none" 
	d="
M49.930363,93.034256 
	C50.114502,93.029037 50.298637,93.023819 50.760963,93.364151 
	C51.434132,96.904350 51.829105,100.098991 52.224075,103.293633 
	C51.794369,104.293579 51.364666,105.293526 50.623871,106.745071 
	C49.933292,107.816559 49.553802,108.436440 49.174313,109.056320 
	C47.248028,110.538406 45.321743,112.020493 42.906326,113.775436 
	C41.938744,114.342484 41.460293,114.636681 40.736305,114.958740 
	C40.490768,114.986595 40.041412,115.192360 39.687836,115.187210 
	C37.841888,115.184265 36.349510,115.186462 35.176445,115.046051 
	C37.391693,112.618568 39.287636,110.333702 41.534325,108.008987 
	C44.566837,102.990845 47.248600,98.012550 49.930363,93.034256 
z"/>
<path fill="#6BCFF3" opacity="1.000000" stroke="none" 
	d="
M62.244465,74.783539 
	C60.856937,74.353371 59.752373,73.743767 58.446426,72.808853 
	C58.350822,71.996986 58.456604,71.510445 58.735115,70.711082 
	C61.444324,67.310608 63.980808,64.222946 66.517288,61.135284 
	C68.124084,60.124035 69.730888,59.112785 71.660919,57.898109 
	C72.499596,59.503845 73.232063,60.906223 73.977478,62.662300 
	C70.169441,66.878700 66.348434,70.741402 62.244465,74.783539 
z"/>
<path fill="#0FABE3" opacity="1.000000" stroke="none" 
	d="
M74.190979,63.302971 
	C74.838516,62.490314 75.504761,62.065418 76.496971,61.432644 
	C77.481346,63.176285 78.462502,64.914223 79.858963,67.136642 
	C82.169334,69.422569 84.064400,71.223999 85.969978,73.409622 
	C86.324783,75.524826 86.669075,77.255844 86.631653,78.990387 
	C85.486008,78.999466 84.722084,79.005020 83.690056,78.816696 
	C82.230469,76.951996 81.038979,75.281166 79.639236,73.318314 
	C79.050598,75.218262 78.636040,76.556343 78.221481,77.894424 
	C76.884216,73.159859 75.546959,68.425301 74.190979,63.302971 
z"/>
<path fill="#5CCAF0" opacity="1.000000" stroke="none" 
	d="
M164.258530,82.233025 
	C164.897629,79.813507 165.536713,77.393997 166.503860,74.473709 
	C169.578735,70.898933 166.174957,69.778358 164.926422,67.973267 
	C166.683121,65.060112 168.439819,62.146957 170.553467,59.438686 
	C170.915176,62.027584 170.784058,64.422234 170.969604,66.792091 
	C171.106949,68.546303 171.656311,70.268242 172.022141,72.004562 
	C170.376587,75.096214 168.731033,78.187866 166.637482,81.622353 
	C165.545837,82.054466 164.902191,82.143745 164.258530,82.233025 
z"/>
<path fill="#15AAE5" opacity="1.000000" stroke="none" 
	d="
M138.012680,63.028923 
	C140.643127,55.125881 146.495605,50.966511 154.593994,49.425980 
	C153.071777,51.476299 151.223923,53.138985 149.376068,54.801666 
	C149.212448,54.503029 149.048843,54.204391 148.885239,53.905750 
	C148.251389,56.599277 147.617538,59.292805 146.724548,62.098167 
	C145.964966,62.470436 145.464493,62.730869 144.848511,62.742222 
	C144.040939,62.560024 143.349762,62.638157 142.656647,62.691479 
	C141.109161,62.810524 139.560730,62.917206 138.012680,63.028923 
z"/>
<path fill="#4CC1ED" opacity="1.000000" stroke="none" 
	d="
M137.759354,63.279587 
	C139.560730,62.917206 141.109161,62.810524 142.656647,62.691479 
	C143.349762,62.638157 144.040939,62.560024 144.699005,63.081905 
	C143.097549,68.115273 141.530075,72.559883 139.622742,76.853195 
	C137.512299,75.732986 134.417343,76.290657 134.813385,72.824371 
	C135.710938,69.726334 136.608490,66.628296 137.759354,63.279587 
z"/>
<path fill="#CEEEF9" opacity="1.000000" stroke="none" 
	d="
M174.983826,48.958374 
	C178.086838,48.958374 181.189850,48.958374 185.237534,48.958374 
	C182.410995,54.216568 180.075699,58.560925 177.396637,62.661335 
	C176.628586,61.405159 176.179413,60.402435 175.788147,59.377594 
	C175.489853,58.596264 175.264999,57.786892 175.060455,57.126610 
	C175.194153,57.314758 175.274872,57.366291 175.355591,57.417831 
	C175.233749,57.281040 175.111908,57.144253 174.987778,56.561745 
	C174.984924,53.730141 174.984375,51.344257 174.983826,48.958374 
z"/>
<path fill="#A2E5F8" opacity="1.000000" stroke="none" 
	d="
M174.726807,48.966278 
	C174.984375,51.344257 174.984924,53.730141 174.992737,56.557991 
	C175.000000,56.999958 175.007462,56.989994 175.007462,56.989994 
	C175.264999,57.786892 175.489853,58.596264 175.788147,59.377594 
	C176.179413,60.402435 176.628586,61.405159 177.056381,62.735977 
	C175.580109,65.930756 174.100327,68.806946 172.321335,71.843849 
	C171.656311,70.268242 171.106949,68.546303 170.969604,66.792091 
	C170.784058,64.422234 170.915176,62.027584 170.838394,59.260193 
	C171.783585,55.827812 172.800827,52.778805 173.891037,49.398563 
	C174.132614,49.036278 174.301193,49.005226 174.726807,48.966278 
z"/>
<path fill="#029BDC" opacity="1.000000" stroke="none" 
	d="
M146.983688,61.986328 
	C147.617538,59.292805 148.251389,56.599277 148.885239,53.905750 
	C149.048843,54.204391 149.212448,54.503029 149.376068,54.801666 
	C151.223923,53.138985 153.071777,51.476299 154.967514,49.474407 
	C155.177048,49.071754 155.338699,49.008308 156.081848,48.939430 
	C157.105820,48.847446 157.548264,48.760895 157.990707,48.674347 
	C158.161987,48.727364 158.333282,48.780380 158.752350,48.938004 
	C156.999359,53.768639 154.998566,58.494675 152.668060,63.613312 
	C151.901108,64.014885 151.463867,64.023865 150.979675,63.720955 
	C149.616364,62.934818 148.300034,62.460575 146.983688,61.986328 
z"/>
<path fill="#E8F2F9" opacity="1.000000" stroke="none" 
	d="
M137.956207,114.873505 
	C137.553024,114.815956 137.740097,114.379379 138.235565,114.191292 
	C141.468094,111.300819 144.205185,108.598427 146.942261,105.896027 
	C148.839691,104.732315 150.737122,103.568604 152.935760,102.230583 
	C153.962891,102.706413 154.688828,103.356552 155.414764,104.006691 
	C154.992966,104.061951 154.571167,104.117210 154.149368,104.172470 
	C154.149368,106.605324 154.149368,109.038177 154.149368,112.211159 
	C152.788971,112.305550 151.124802,112.421021 149.512817,112.129959 
	C149.922562,111.048943 150.280136,110.374466 150.637711,109.699989 
	C150.322617,109.580978 150.007523,109.461975 149.692429,109.342972 
	C149.461212,110.228142 149.229996,111.113304 148.998779,111.998474 
	C145.231720,112.175674 141.856339,113.773827 137.956207,114.873505 
z"/>
<path fill="#82D1F1" opacity="1.000000" stroke="none" 
	d="
M35.839985,69.324432 
	C33.378014,76.277763 30.567318,83.305832 27.828270,90.361710 
	C27.356867,91.576065 27.190163,92.908699 26.813492,94.810585 
	C26.564596,95.708588 26.328085,95.918755 26.006958,95.733368 
	C25.979177,94.585884 25.979177,93.770004 25.979177,93.273521 
	C24.779312,93.143227 23.843227,93.041580 22.907145,92.939941 
	C27.109924,85.096146 31.312704,77.252357 35.839985,69.324432 
z"/>
<path fill="#F5FBFA" opacity="1.000000" stroke="none" 
	d="
M34.857136,115.188660 
	C36.349510,115.186462 37.841888,115.184265 39.804550,115.321114 
	C40.510502,115.283730 40.746170,115.107307 40.981838,114.930878 
	C41.460293,114.636681 41.938744,114.342484 42.711605,114.042160 
	C42.681335,115.104584 42.588615,116.937805 41.994457,117.118042 
	C38.030422,118.320541 34.003036,119.524162 29.910067,120.029327 
	C26.222631,120.484451 22.414770,120.188232 18.683643,119.908417 
	C17.741919,119.837784 16.890444,118.563782 16.017391,117.401810 
	C16.037287,116.960854 16.145306,116.851929 16.569294,116.868347 
	C18.940693,116.809937 20.888100,116.735123 23.279554,116.701263 
	C27.434778,116.224365 31.145958,115.706512 34.857136,115.188660 
z"/>
<path fill="#313131" opacity="1.000000" stroke="none" 
	d="
M210.434204,59.731148 
	C210.433823,61.927425 210.433823,63.676102 210.433823,65.424782 
	C209.895752,65.453690 209.357681,65.482597 208.819611,65.511505 
	C208.819611,61.869091 208.819611,58.226673 208.819611,53.126709 
	C206.878708,55.411587 206.026779,56.414501 205.079529,57.529617 
	C205.359039,53.907646 205.722366,50.437336 210.434570,47.949371 
	C210.434570,52.394024 210.434570,55.838791 210.434204,59.731148 
z"/>
<path fill="#045791" opacity="1.000000" stroke="none" 
	d="
M85.164314,50.077713 
	C87.474144,50.037434 89.783974,49.997154 92.335037,50.275085 
	C92.013649,50.851059 91.451035,51.108814 91.041351,51.296509 
	C92.395386,53.220539 93.720520,55.103497 94.610825,56.991032 
	C92.393585,56.807606 90.610413,56.626614 88.828926,56.430210 
	C84.509308,55.953983 80.190483,55.470581 76.098724,54.721809 
	C79.272171,52.994938 82.218239,51.536324 85.164314,50.077713 
M84.964561,53.179943 
	C84.560265,53.274105 84.155968,53.368267 83.751671,53.462425 
	C83.840317,53.582436 83.944145,53.813766 84.015106,53.804089 
	C84.425430,53.748116 84.827995,53.635292 84.964561,53.179943 
z"/>
<path fill="#1B1B1B" opacity="1.000000" stroke="none" 
	d="
M250.079880,56.869625 
	C250.219894,57.727859 250.358307,58.214920 250.377121,58.706562 
	C250.521683,62.483368 249.077255,65.660423 245.112289,65.647194 
	C243.044571,65.640297 240.001694,63.749512 239.151672,61.902958 
	C237.878006,59.136082 238.085266,55.575573 241.699615,53.832424 
	C245.238831,52.125511 248.093689,52.974449 250.079880,56.869625 
M240.831345,61.159832 
	C242.349792,62.092865 243.781754,63.343517 245.431915,63.792927 
	C246.039398,63.958366 247.828873,62.288467 247.907486,61.356846 
	C248.059677,59.553127 247.701126,57.519173 246.896515,55.909378 
	C246.550446,55.216961 243.875595,54.735203 243.453796,55.212933 
	C242.195114,56.638458 241.527939,58.586246 240.831345,61.159832 
z"/>
<path fill="#4CC1ED" opacity="1.000000" stroke="none" 
	d="
M52.482990,103.115540 
	C51.829105,100.098991 51.434132,96.904350 51.037239,93.359009 
	C53.302223,89.366074 55.569115,85.723839 58.123322,81.963806 
	C56.521057,88.876488 54.631477,95.906967 52.482990,103.115540 
z"/>
<path fill="#0986CB" opacity="1.000000" stroke="none" 
	d="
M119.466797,106.023376 
	C118.589859,104.378143 118.096062,102.647270 117.480530,100.960823 
	C116.107445,97.198837 116.963676,94.336769 120.876358,92.227203 
	C121.965721,94.034950 122.887405,96.178841 123.874084,98.947395 
	C124.312141,100.031898 124.685204,100.491730 124.919899,101.246536 
	C124.521774,102.348549 124.262009,103.155579 124.002243,103.962616 
	C122.599731,104.627708 121.197220,105.292801 119.466797,106.023376 
z"/>
<path fill="#8AD6F2" opacity="1.000000" stroke="none" 
	d="
M134.546494,73.069031 
	C134.417343,76.290657 137.512299,75.732986 139.605209,77.220360 
	C139.917007,78.718575 139.906479,79.698318 139.634521,80.902138 
	C139.192841,82.001297 139.012573,82.876389 138.615417,83.984818 
	C137.927063,85.134430 137.455582,86.050720 136.784729,86.703339 
	C134.788834,85.614075 132.992310,84.788475 131.195801,83.962875 
	C131.221191,83.518616 131.246582,83.074356 131.480469,82.176254 
	C131.856186,81.518036 131.962830,81.285782 132.008911,81.025658 
	C132.765808,78.455002 133.522705,75.884346 134.546494,73.069031 
z"/>
<path fill="#40C8F2" opacity="1.000000" stroke="none" 
	d="
M78.158325,78.291428 
	C78.636040,76.556343 79.050598,75.218262 79.639236,73.318314 
	C81.038979,75.281166 82.230469,76.951996 83.710541,79.166199 
	C84.338699,80.807022 84.678261,81.904465 85.003716,83.335281 
	C84.982201,84.113571 84.974792,84.558479 84.706291,85.189438 
	C83.267929,86.597084 82.090645,87.818687 80.913361,89.040291 
	C79.973961,85.589676 79.034569,82.139053 78.158325,78.291428 
z"/>
<path fill="#BBE7F6" opacity="1.000000" stroke="none" 
	d="
M16.923431,108.993095 
	C17.868475,105.864952 18.813515,102.736801 20.325459,99.295074 
	C22.212725,99.002129 23.533085,99.022781 24.937931,99.045486 
	C25.022413,99.047546 25.161758,98.951897 25.058014,99.339333 
	C24.529593,101.251335 24.104914,102.775909 23.711689,104.313675 
	C23.743143,104.326866 23.691284,104.322655 23.522228,104.349670 
	C23.353174,104.376694 23.148741,104.651367 22.892925,104.823364 
	C20.806723,108.069756 18.976336,111.144150 16.965092,113.950394 
	C16.214819,113.413025 15.645405,113.143814 15.075990,112.874603 
	C15.081029,112.485588 15.086069,112.096573 15.390981,111.338791 
	C16.101711,110.311050 16.512571,109.652069 16.923431,108.993095 
z"/>
<path fill="#262626" opacity="1.000000" stroke="none" 
	d="
M193.105042,63.336388 
	C193.100052,58.298714 193.100052,53.695995 193.100052,48.442863 
	C198.629562,49.828259 197.583542,54.610630 199.698410,57.368168 
	C199.315536,57.621384 198.932678,57.874603 198.549820,58.127823 
	C197.649414,56.790859 196.749008,55.453896 195.077072,52.971336 
	C195.077072,57.929676 195.077072,61.690411 195.077072,65.451149 
	C194.743179,65.503082 194.409286,65.555016 194.075394,65.606949 
	C193.753601,64.995079 193.431808,64.383217 193.105042,63.336388 
z"/>
<path fill="#109DDB" opacity="1.000000" stroke="none" 
	d="
M90.031616,109.854904 
	C87.929527,106.139603 85.827431,102.424294 83.960625,98.464882 
	C84.735748,99.119461 85.275581,100.018150 85.531708,100.444527 
	C86.675591,98.844193 87.329544,97.929283 87.994728,97.379074 
	C89.675301,100.820595 91.344643,103.897430 92.767052,107.145050 
	C92.347435,107.876549 92.174751,108.437263 92.001030,108.998993 
	C92.000000,109.000000 91.998711,109.001930 91.715309,109.013107 
	C90.965149,109.301155 90.498383,109.578033 90.031616,109.854904 
z"/>
<path fill="#6AC7EC" opacity="1.000000" stroke="none" 
	d="
M84.709183,49.988998 
	C82.218239,51.536324 79.272171,52.994938 75.823959,54.839798 
	C74.568802,55.431431 73.815788,55.636818 73.062775,55.842201 
	C70.535301,54.069118 68.007828,52.296036 65.238998,50.295738 
	C71.416435,50.012447 77.835243,49.956367 84.709183,49.988998 
z"/>
<path fill="#1F1F1F" opacity="1.000000" stroke="none" 
	d="
M255.548126,53.161709 
	C256.925781,53.263435 257.930725,53.445122 258.935699,53.626804 
	C258.946655,53.899807 258.957611,54.172810 258.968567,54.445808 
	C257.596649,54.880306 256.224762,55.314804 254.839783,55.753433 
	C254.874969,59.639709 262.993347,59.279510 259.037842,64.228203 
	C257.948608,65.590973 254.774536,65.287369 252.557098,65.748383 
	C252.476379,65.247147 252.395660,64.745911 252.314941,64.244667 
	C254.120224,63.991116 255.925491,63.737564 257.993225,63.447147 
	C257.566437,59.590363 247.681458,58.620049 255.548126,53.161709 
z"/>
<path fill="#262626" opacity="1.000000" stroke="none" 
	d="
M281.020447,53.880257 
	C282.760468,52.920715 284.500488,51.961174 286.486389,50.866035 
	C286.965851,51.447182 288.112823,52.837326 289.268524,54.238102 
	C285.814362,56.632282 285.828461,62.408829 289.734985,64.890022 
	C285.732666,66.135620 285.263733,65.603943 284.774048,61.431076 
	C284.493164,59.037762 287.093018,55.043747 281.407257,54.530060 
	C280.963562,54.348320 281.020447,53.880257 281.020447,53.880257 
z"/>
<path fill="#0986CB" opacity="1.000000" stroke="none" 
	d="
M92.002060,108.997978 
	C92.174751,108.437263 92.347435,107.876549 93.085480,107.183167 
	C94.437553,107.705078 95.224258,108.359657 96.118187,109.228165 
	C96.424095,109.705200 96.679207,109.890762 97.190399,110.274132 
	C99.958107,111.754425 102.526154,112.959366 105.094208,114.164299 
	C105.094208,114.164299 105.076607,114.510422 105.075142,114.683746 
	C99.490166,115.559441 94.342087,114.749771 90.098938,110.209473 
	C90.498383,109.578033 90.965149,109.301155 91.883072,109.256493 
	C92.885590,109.662979 93.436943,109.837257 94.001411,110.250931 
	C94.137917,110.761559 94.261292,111.032799 94.384674,111.304039 
	C94.506485,111.214912 94.739449,111.055222 94.734116,111.046814 
	C94.505028,110.685982 94.254768,110.338585 93.838745,109.745171 
	C93.114288,109.333191 92.558174,109.165581 92.002060,108.997978 
z"/>
<path fill="#15AAE5" opacity="1.000000" stroke="none" 
	d="
M87.983505,97.014381 
	C87.329544,97.929283 86.675591,98.844193 85.531708,100.444527 
	C85.275581,100.018150 84.735748,99.119461 83.936935,98.140366 
	C83.071449,96.376312 82.464935,94.692665 82.013573,92.435471 
	C85.302536,93.427017 85.627022,91.115883 86.353920,89.224380 
	C87.513924,91.196938 88.579605,92.901100 89.230774,94.751167 
	C89.421211,95.292206 88.432022,96.248451 87.983505,97.014381 
z"/>
<path fill="#BBE7F6" opacity="1.000000" stroke="none" 
	d="
M125.058258,100.951561 
	C124.685204,100.491730 124.312141,100.031898 124.002548,99.279663 
	C125.372147,97.060066 126.809875,95.205887 127.934883,93.178207 
	C128.605988,91.968628 128.786362,90.486786 129.682175,89.295929 
	C131.726852,89.994392 133.276703,90.524254 134.891510,91.028320 
	C134.956467,91.002541 135.087524,90.953781 134.930847,91.255630 
	C131.535538,94.688843 128.296906,97.820206 125.058258,100.951561 
z"/>
<path fill="#117DBC" opacity="1.000000" stroke="none" 
	d="
M95.045654,56.986450 
	C93.720520,55.103497 92.395386,53.220539 91.041351,51.296509 
	C91.451035,51.108814 92.013649,50.851059 92.757835,50.374718 
	C95.074844,51.080914 97.210274,52.005695 99.674194,53.361977 
	C100.182465,54.032417 100.421844,54.148365 100.720825,54.141319 
	C100.720825,54.141319 100.835915,54.190933 100.867950,54.245323 
	C101.207741,55.016411 101.515488,55.733109 101.573074,56.701820 
	C99.872231,56.979343 98.421555,57.004856 96.649864,57.017197 
	C95.901115,56.998165 95.473389,56.992310 95.045654,56.986450 
z"/>
<path fill="#E8F2F9" opacity="1.000000" stroke="none" 
	d="
M164.210144,82.586418 
	C164.902191,82.143745 165.545837,82.054466 166.513321,81.947479 
	C166.238403,83.111969 165.639664,84.294174 165.020462,85.738190 
	C165.000000,86.000000 165.000610,85.999390 165.000610,85.999390 
	C162.593597,89.642815 160.186584,93.286232 157.411346,96.975204 
	C159.416000,92.327110 161.788864,87.633461 164.210144,82.586418 
z"/>
<path fill="#1F1F1F" opacity="1.000000" stroke="none" 
	d="
M270.939728,64.852219 
	C266.445801,66.475403 263.200897,65.413376 262.063629,61.947136 
	C260.721863,57.857422 262.468262,54.847580 267.490631,53.335247 
	C267.500671,54.036224 267.243713,54.456245 266.637482,55.011162 
	C265.618683,57.320362 264.283234,59.588352 264.570160,61.628120 
	C264.706757,62.599209 267.931641,63.135853 269.999634,63.976418 
	C270.474335,64.339767 270.707031,64.595985 270.939728,64.852219 
z"/>
<path fill="#121212" opacity="1.000000" stroke="none" 
	d="
M185.121796,110.718277 
	C184.604279,112.664749 184.203033,114.458878 183.157959,115.719070 
	C182.844452,116.097084 180.030029,115.325615 179.620560,114.474747 
	C179.058640,113.307167 179.314819,110.480011 179.894455,110.275627 
	C181.396576,109.745972 183.267578,110.262444 185.121796,110.718277 
z"/>
<path fill="#121212" opacity="1.000000" stroke="none" 
	d="
M280.709808,53.664822 
	C281.020447,53.880257 280.963562,54.348320 280.972565,54.583900 
	C280.332581,55.895214 279.259552,56.919876 279.122559,58.057274 
	C278.833618,60.456470 279.034637,62.914677 279.034637,65.348663 
	C278.333160,65.370384 277.631683,65.392105 276.930206,65.413818 
	C276.930206,62.398685 277.971954,58.804192 276.691223,56.501343 
	C274.663239,52.854904 278.135773,51.531773 278.299561,49.122089 
	C278.999451,50.564522 279.699310,52.006954 280.709808,53.664822 
z"/>
<path fill="#A2E5F8" opacity="1.000000" stroke="none" 
	d="
M134.826538,91.054108 
	C133.276703,90.524254 131.726852,89.994392 130.037964,89.179092 
	C130.199341,87.462952 130.499756,86.032257 130.997986,84.282211 
	C132.992310,84.788475 134.788834,85.614075 136.812286,86.974167 
	C137.079971,87.685432 137.120743,87.862206 136.993927,88.312790 
	C136.159744,89.409119 135.493134,90.231613 134.826538,91.054108 
z"/>
<path fill="#313131" opacity="1.000000" stroke="none" 
	d="
M266.986755,54.876259 
	C267.243713,54.456245 267.500671,54.036224 267.859955,53.391899 
	C274.255981,54.223698 275.641876,58.571621 271.276550,64.737152 
	C270.707031,64.595985 270.474335,64.339767 270.244049,63.640087 
	C272.872650,57.875896 272.136292,55.996342 266.986755,54.876259 
z"/>
<path fill="#A2E5F8" opacity="1.000000" stroke="none" 
	d="
M24.853447,99.043434 
	C23.533085,99.022781 22.212725,99.002129 20.500454,98.968506 
	C20.866402,97.087738 21.624256,95.219955 22.644629,93.146057 
	C23.843227,93.041580 24.779312,93.143227 25.979177,93.273521 
	C25.979177,93.770004 25.979177,94.585884 25.988014,96.063049 
	C25.615715,97.497368 25.234579,98.270401 24.853447,99.043434 
z"/>
<path fill="#34BEF0" opacity="1.000000" stroke="none" 
	d="
M86.101463,89.011642 
	C85.627022,91.115883 85.302536,93.427017 81.991714,92.054001 
	C81.528603,91.405876 81.242485,90.565666 80.934860,89.382874 
	C82.090645,87.818687 83.267929,86.597084 84.954208,85.194756 
	C85.463203,85.014030 85.958359,85.022598 85.972122,85.420975 
	C86.024406,86.883446 86.062935,87.947548 86.101463,89.011642 
z"/>
<path fill="#E8F2F9" opacity="1.000000" stroke="none" 
	d="
M51.141396,53.654160 
	C49.877151,54.538685 48.757843,55.175297 47.322533,55.905766 
	C46.207615,51.627991 48.868870,49.626640 54.004879,51.218071 
	C53.216389,52.179913 52.251358,52.793083 51.141396,53.654160 
z"/>
<path fill="#F5FBFA" opacity="1.000000" stroke="none" 
	d="
M44.771725,120.426834 
	C42.195599,120.718521 39.444679,120.718521 36.693764,120.718521 
	C36.707104,120.221352 36.720448,119.724182 36.733788,119.227005 
	C39.354836,119.529716 41.975887,119.832428 44.771725,120.426834 
z"/>
<path fill="#F5FBFA" opacity="1.000000" stroke="none" 
	d="
M49.530510,109.091217 
	C49.553802,108.436440 49.933292,107.816559 50.556591,107.068962 
	C51.893757,107.361359 52.987118,107.781464 54.080479,108.201576 
	C53.921272,108.727455 53.762066,109.253334 53.602859,109.779221 
	C52.364140,109.561516 51.125423,109.343811 49.530510,109.091217 
z"/>
<path fill="#F5FBFA" opacity="1.000000" stroke="none" 
	d="
M15.024594,113.218643 
	C15.645405,113.143814 16.214819,113.413025 16.800678,114.203751 
	C16.593187,115.434158 16.369247,116.143044 16.145306,116.851929 
	C16.145306,116.851929 16.037287,116.960854 15.982241,117.015411 
	C15.609196,115.900871 15.291197,114.731773 15.024594,113.218643 
z"/>
<path fill="#E8F2F9" opacity="1.000000" stroke="none" 
	d="
M38.654182,65.050041 
	C38.232037,66.277611 37.449375,67.545036 36.367882,68.943108 
	C36.810593,67.745804 37.552135,66.417854 38.654182,65.050041 
z"/>
<path fill="#313131" opacity="1.000000" stroke="none" 
	d="
M293.126770,54.092972 
	C293.368317,53.468670 293.611755,53.171593 293.855164,52.874516 
	C294.035065,53.635235 294.214996,54.395958 294.394928,55.156677 
	C293.972839,54.911182 293.550751,54.665691 293.126770,54.092972 
z"/>
<path fill="#E8F2F9" opacity="1.000000" stroke="none" 
	d="
M57.661537,49.856720 
	C57.173450,50.337955 56.410152,50.685719 55.327801,51.034252 
	C55.801273,50.597763 56.593800,50.160503 57.661537,49.856720 
z"/>
<path fill="#F5FBFA" opacity="1.000000" stroke="none" 
	d="
M47.954136,115.605675 
	C47.712360,115.209412 47.714069,114.815231 47.744343,114.423256 
	C47.745197,114.412201 48.050785,114.424675 48.214279,114.426178 
	C48.210064,114.820137 48.205849,115.214104 47.954136,115.605675 
z"/>
<path fill="#F5FBFA" opacity="1.000000" stroke="none" 
	d="
M16.603893,109.044456 
	C16.512571,109.652069 16.101711,110.311050 15.380221,111.047165 
	C15.474514,110.448143 15.879436,109.771980 16.603893,109.044456 
z"/>
<path fill="#E8F2F9" opacity="1.000000" stroke="none" 
	d="
M35.543144,63.386223 
	C35.658211,62.942005 35.940319,62.672512 36.222427,62.403015 
	C36.333733,62.519978 36.548313,62.732666 36.541435,62.740078 
	C36.276966,63.025394 35.992241,63.291927 35.543144,63.386223 
z"/>
<path fill="#F5FBFA" opacity="1.000000" stroke="none" 
	d="
M55.610313,105.535934 
	C56.057774,105.651535 56.332073,105.933372 56.585194,106.233093 
	C56.591679,106.240768 56.365715,106.444740 56.248158,106.557159 
	C55.976894,106.272949 55.705631,105.988731 55.610313,105.535934 
z"/>
<path fill="#E8F2F9" opacity="1.000000" stroke="none" 
	d="
M43.660248,58.865692 
	C43.461437,59.565964 42.996964,60.168400 42.261520,60.871750 
	C42.458565,60.237724 42.926575,59.502789 43.660248,58.865692 
z"/>
<path fill="#E8F2F9" opacity="1.000000" stroke="none" 
	d="
M157.310074,103.078506 
	C157.278519,102.528267 157.405869,102.138252 157.533203,101.748245 
	C157.639404,101.855003 157.851593,101.985336 157.833969,102.064545 
	C157.745255,102.463280 157.596588,102.848663 157.310074,103.078506 
z"/>
<path fill="#CEEEF9" opacity="1.000000" stroke="none" 
	d="
M171.792786,48.519928 
	C171.243423,48.782146 170.498123,48.836899 169.389374,48.793755 
	C169.882874,48.568058 170.739868,48.440262 171.792786,48.519928 
z"/>
<path fill="#E8F2F9" opacity="1.000000" stroke="none" 
	d="
M40.769279,62.002113 
	C40.824234,62.287632 40.647625,62.570740 40.218147,62.920811 
	C40.156090,62.658417 40.346901,62.329060 40.769279,62.002113 
z"/>
<path fill="#CEEEF9" opacity="1.000000" stroke="none" 
	d="
M157.827698,48.490112 
	C157.548264,48.760895 157.105820,48.847446 156.329803,48.859680 
	C156.552399,48.625538 157.108551,48.465710 157.827698,48.490112 
z"/>
<path fill="#CEEEF9" opacity="1.000000" stroke="none" 
	d="
M162.837067,48.526703 
	C162.546021,48.774162 162.100876,48.835537 161.332611,48.789490 
	C161.567322,48.568253 162.125153,48.454433 162.837067,48.526703 
z"/>
<path fill="#A2E5F8" opacity="1.000000" stroke="none" 
	d="
M131.822845,81.125839 
	C131.962830,81.285782 131.856186,81.518036 131.549561,81.849014 
	C131.298035,81.669106 131.373581,81.419243 131.822845,81.125839 
z"/>
<path fill="#E8F2F9" opacity="1.000000" stroke="none" 
	d="
M164.999695,86.000229 
	C165.120056,86.140747 165.240723,86.281029 165.361389,86.421310 
	C165.277039,86.372063 165.192703,86.322815 165.054474,86.136475 
	C165.000610,85.999390 165.000000,86.000000 164.999695,86.000229 
z"/>
<path fill="#5CCAF0" opacity="1.000000" stroke="none" 
	d="
M100.680374,53.926956 
	C100.421844,54.148365 100.182465,54.032417 99.936790,53.599564 
	C100.193619,53.341805 100.449966,53.444118 100.680374,53.926956 
z"/>
<path fill="#E8F2F9" opacity="1.000000" stroke="none" 
	d="
M155.351288,98.882584 
	C155.270844,98.695648 155.380783,98.396233 155.750336,98.065468 
	C155.934464,98.330734 155.778351,98.576073 155.351288,98.882584 
z"/>
<path fill="#E8F2F9" opacity="1.000000" stroke="none" 
	d="
M156.266388,97.922600 
	C156.112717,97.680565 156.286453,97.416344 156.792191,97.136230 
	C156.938812,97.376907 156.762039,97.636925 156.266388,97.922600 
z"/>
<path fill="#0377B9" opacity="1.000000" stroke="none" 
	d="
M66.057358,61.098164 
	C63.980808,64.222946 61.444324,67.310608 58.313744,70.706223 
	C54.264889,71.004929 50.680172,71.580284 47.386131,70.848045 
	C42.564915,69.776321 41.101425,71.765198 40.749119,75.994789 
	C40.499306,75.995720 39.999695,75.999695 39.654121,75.998306 
	C38.847061,75.986031 38.385571,75.975136 37.924080,75.964233 
	C39.855984,72.183929 41.787888,68.403625 43.874577,64.315910 
	C48.132687,63.305351 52.223103,62.510742 56.343594,61.929218 
	C59.408009,61.496735 62.511398,61.340378 66.057358,61.098164 
M60.737629,63.184170 
	C60.623409,63.026947 60.509186,62.869728 60.394966,62.712509 
	C60.418037,62.931114 60.441109,63.149723 60.737629,63.184170 
z"/>
<path fill="#02609B" opacity="1.000000" stroke="none" 
	d="
M94.610825,56.991028 
	C95.473389,56.992310 95.901115,56.998165 96.663757,57.364418 
	C97.333160,58.816887 97.667648,59.908962 97.534065,61.000797 
	C91.378891,61.000210 85.691795,60.999859 80.004692,60.999512 
	C77.755821,59.490665 75.506943,57.981823 73.160416,56.157589 
	C73.815788,55.636818 74.568802,55.431431 75.596573,55.108059 
	C80.190483,55.470581 84.509308,55.953983 88.828926,56.430210 
	C90.610413,56.626614 92.393585,56.807606 94.610825,56.991028 
z"/>
<path fill="#017EBD" opacity="1.000000" stroke="none" 
	d="
M85.959465,73.025429 
	C84.064400,71.223999 82.169334,69.422569 80.126144,67.331062 
	C80.245758,66.536247 80.513496,66.031502 81.223602,65.262924 
	C82.109177,65.000839 82.552376,65.002586 83.042625,65.380081 
	C84.547081,66.833817 85.982208,68.788292 87.466072,68.826027 
	C91.980881,68.940834 96.514503,68.315727 101.040802,67.978699 
	C101.040802,67.978699 101.037819,67.942017 101.069046,68.268517 
	C101.725403,69.066444 102.350540,69.537880 102.975677,70.009308 
	C102.992569,70.758934 103.009460,71.508553 102.556549,72.630432 
	C96.710991,73.010262 91.335228,73.017845 85.959465,73.025429 
z"/>
<path fill="#0169A5" opacity="1.000000" stroke="none" 
	d="
M82.995583,65.004333 
	C82.552376,65.002586 82.109177,65.000839 81.333603,64.999298 
	C80.757156,63.881531 80.513084,62.763554 80.136856,61.322544 
	C85.691795,60.999859 91.378891,61.000210 97.653397,61.252357 
	C98.500160,61.995171 98.759514,62.486176 98.822098,63.323921 
	C93.415405,64.115219 88.205490,64.559776 82.995583,65.004333 
z"/>
<path fill="#018ACB" opacity="1.000000" stroke="none" 
	d="
M151.026627,64.032852 
	C151.463867,64.023865 151.901108,64.014885 152.666199,64.000931 
	C156.416565,65.300728 159.839096,66.605507 163.587769,68.308319 
	C163.271820,70.476097 162.629715,72.245842 161.987610,74.015587 
	C160.414078,76.473518 158.840546,78.931450 156.771088,81.659439 
	C155.343979,81.827797 153.740524,81.376328 153.583786,81.677574 
	C151.661926,85.371292 148.695648,83.901001 145.891098,83.474937 
	C144.284286,83.230835 142.650787,83.162636 141.076172,82.665344 
	C142.812408,79.255112 144.520691,76.205032 146.185791,73.131561 
	C147.822220,70.111023 149.414810,67.066727 151.026627,64.032852 
z"/>
<path fill="#15AAE5" opacity="1.000000" stroke="none" 
	d="
M162.248993,74.128471 
	C162.629715,72.245842 163.271820,70.476097 163.951904,68.353470 
	C163.989868,68.000580 164.458694,67.981720 164.692566,67.977493 
	C166.174957,69.778358 169.578735,70.898933 166.523209,74.094452 
	C165.687851,74.116402 165.158798,73.925751 164.635117,73.939491 
	C163.924713,73.958145 163.218445,74.133316 162.248993,74.128471 
z"/>
<path fill="#0289C9" opacity="1.000000" stroke="none" 
	d="
M85.969978,73.409622 
	C91.335228,73.017845 96.710991,73.010262 102.557632,73.005356 
	C104.688194,78.077484 106.347878,83.146950 107.552681,88.606262 
	C102.365242,89.336472 97.632690,89.676826 92.602570,89.843956 
	C90.541115,86.109444 88.777237,82.548149 87.013367,78.986862 
	C86.669075,77.255844 86.324783,75.524826 85.969978,73.409622 
z"/>
<path fill="#0172B1" opacity="1.000000" stroke="none" 
	d="
M83.042625,65.380081 
	C88.205490,64.559776 93.415405,64.115219 99.088333,63.458832 
	C100.059258,63.853367 100.567162,64.459732 101.075058,65.066093 
	C101.068626,65.794571 101.062195,66.523041 101.048279,67.615105 
	C96.514503,68.315727 91.980881,68.940834 87.466072,68.826027 
	C85.982208,68.788292 84.547081,66.833817 83.042625,65.380081 
z"/>
<path fill="#0382C1" opacity="1.000000" stroke="none" 
	d="
M92.900139,90.017181 
	C97.632690,89.676826 102.365242,89.336472 107.565239,88.991959 
	C108.366936,89.766602 108.701187,90.545403 109.069778,91.660431 
	C109.104111,91.996666 109.024071,91.997551 108.573540,92.009338 
	C105.526855,92.347603 102.896645,92.517059 100.349495,93.069489 
	C99.149818,93.329681 98.109680,94.325531 96.649269,94.991753 
	C95.836189,95.002838 95.371094,95.010201 94.637024,94.803886 
	C93.878761,93.065865 93.389450,91.541527 92.900139,90.017181 
z"/>
<path fill="#0289C9" opacity="1.000000" stroke="none" 
	d="
M101.520042,65.051117 
	C100.567162,64.459732 100.059258,63.853367 99.285110,63.112091 
	C98.759514,62.486176 98.500160,61.995171 98.121475,61.252602 
	C97.667648,59.908962 97.333160,58.816887 96.984772,57.377586 
	C98.421555,57.004856 99.872231,56.979343 101.634628,56.990658 
	C103.386230,59.434052 104.826111,61.840618 106.391968,64.603729 
	C105.000305,64.985565 103.482658,65.010849 101.520042,65.051117 
z"/>
<path fill="#0289C9" opacity="1.000000" stroke="none" 
	d="
M102.952324,69.687996 
	C102.350540,69.537880 101.725403,69.066444 101.087448,68.268700 
	C101.692741,68.417152 102.310852,68.891914 102.952324,69.687996 
z"/>
<path fill="#0264A3" opacity="1.000000" stroke="none" 
	d="
M146.828812,105.598068 
	C144.205185,108.598427 141.468094,111.300819 138.366928,113.993454 
	C138.002838,113.983696 137.994247,113.502716 137.855484,112.925690 
	C136.536560,110.675385 135.356415,109.002106 134.176254,107.328827 
	C133.935623,107.481949 133.694992,107.635063 133.454361,107.788185 
	C132.941513,106.171227 132.428665,104.554276 132.025208,102.682831 
	C132.406464,101.947144 132.678345,101.465958 133.301971,100.938812 
	C138.446014,100.597145 143.238327,100.301430 148.030624,100.005714 
	C147.592209,101.770515 147.153793,103.535309 146.828812,105.598068 
z"/>
<path fill="#026EB0" opacity="1.000000" stroke="none" 
	d="
M148.305191,99.806808 
	C143.238327,100.301430 138.446014,100.597145 133.316559,100.559128 
	C133.952484,97.160278 134.925583,94.095161 136.229599,91.238640 
	C138.334641,91.965096 140.079041,92.667549 141.889603,92.959290 
	C144.905945,93.445335 147.964691,93.668243 151.005585,94.001953 
	C150.196976,95.870598 149.388367,97.739243 148.305191,99.806808 
z"/>
<path fill="#0382C1" opacity="1.000000" stroke="none" 
	d="
M141.029297,83.015244 
	C142.650787,83.162636 144.284286,83.230835 145.891098,83.474937 
	C148.695648,83.901001 151.661926,85.371292 153.583786,81.677574 
	C153.740524,81.376328 155.343979,81.827797 156.632416,81.968826 
	C155.850281,84.875748 154.710938,87.743362 153.228897,90.464645 
	C151.787155,89.966232 150.710114,89.428917 149.585114,89.295189 
	C145.452530,88.803932 141.304031,88.446663 137.161514,88.038971 
	C137.120743,87.862206 137.079971,87.685432 137.011658,87.237839 
	C137.455582,86.050720 137.927063,85.134430 138.785553,84.246895 
	C139.785965,83.862740 140.399353,83.449829 141.010483,83.028290 
	C141.008224,83.019676 141.029297,83.015244 141.029297,83.015244 
z"/>
<path fill="#0079B9" opacity="1.000000" stroke="none" 
	d="
M136.993927,88.312790 
	C141.304031,88.446663 145.452530,88.803932 149.585114,89.295189 
	C150.710114,89.428917 151.787155,89.966232 152.959442,90.679047 
	C152.548523,91.934380 152.064362,92.828987 151.292892,93.862770 
	C147.964691,93.668243 144.905945,93.445335 141.889603,92.959290 
	C140.079041,92.667549 138.334641,91.965096 136.026733,91.226425 
	C135.492935,91.005615 135.087524,90.953781 135.087524,90.953781 
	C135.087524,90.953781 134.956467,91.002541 134.891510,91.028320 
	C135.493134,90.231613 136.159744,89.409119 136.993927,88.312790 
z"/>
<path fill="#0261A3" opacity="1.000000" stroke="none" 
	d="
M24.937929,99.045486 
	C25.234579,98.270401 25.615715,97.497368 26.015795,96.394653 
	C26.328085,95.918755 26.564596,95.708588 26.836714,95.214279 
	C28.199293,92.877846 29.469433,90.761612 31.141426,88.542595 
	C31.829412,89.328682 32.115547,90.217537 32.143059,90.303009 
	C36.914696,88.856972 41.556442,87.450294 46.198193,86.043610 
	C45.119408,88.759392 44.040623,91.475166 42.583237,94.654922 
	C40.809177,96.751503 39.413719,98.384125 37.808735,99.752350 
	C34.712280,98.220566 31.825344,96.953186 28.185324,95.355194 
	C28.809158,99.467384 29.188911,101.970634 29.568665,104.473885 
	C29.309589,104.574074 29.050512,104.674263 28.791437,104.774452 
	C27.581543,102.833595 26.371651,100.892746 25.161758,98.951897 
	C25.161758,98.951897 25.022413,99.047546 24.937929,99.045486 
z"/>
<path fill="#0268AB" opacity="1.000000" stroke="none" 
	d="
M46.489525,85.908920 
	C41.556442,87.450294 36.914696,88.856972 32.143059,90.303009 
	C32.115547,90.217537 31.829412,89.328682 31.299944,88.239464 
	C32.587757,85.548218 34.118904,83.057335 36.109241,80.424957 
	C37.446354,81.062851 38.324280,81.842232 39.999695,83.329590 
	C39.999695,80.183487 39.999695,78.091591 39.999695,75.999695 
	C39.999695,75.999695 40.499306,75.995720 40.757057,76.366959 
	C42.515434,77.592171 43.977436,78.525879 45.527878,79.277016 
	C46.991547,79.986122 48.548237,80.503212 50.064003,81.104767 
	C48.969620,82.661247 47.875237,84.217735 46.489525,85.908920 
z"/>
<path fill="#026EB0" opacity="1.000000" stroke="none" 
	d="
M50.362061,80.927223 
	C48.548237,80.503212 46.991547,79.986122 45.527878,79.277016 
	C43.977436,78.525879 42.515434,77.592171 41.006870,76.366028 
	C41.101425,71.765198 42.564915,69.776321 47.386131,70.848045 
	C50.680172,71.580284 54.264889,71.004929 58.141014,71.019035 
	C58.456604,71.510445 58.350822,71.996986 58.167255,72.724136 
	C56.699959,73.975365 55.125732,74.812462 53.970001,76.042709 
	C52.669807,77.426727 51.747055,79.165329 50.362061,80.927223 
z"/>
<path fill="#0274B7" opacity="1.000000" stroke="none" 
	d="
M38.018257,100.016739 
	C39.413719,98.384125 40.809177,96.751503 42.538010,95.036896 
	C45.314632,97.578522 45.824734,97.433731 49.591042,93.089081 
	C47.248600,98.012550 44.566837,102.990845 41.198433,107.860397 
	C36.963722,106.049210 36.413101,103.380455 38.018257,100.016739 
z"/>
<path fill="#04AAE6" opacity="1.000000" stroke="none" 
	d="
M92.602570,89.843956 
	C93.389450,91.541527 93.878761,93.065865 94.696663,95.162903 
	C96.306953,97.888344 97.588654,100.041092 98.895805,102.398209 
	C98.921265,102.602592 99.017227,103.003174 99.049606,103.351746 
	C102.018425,106.821350 104.954865,109.942398 107.891296,113.063446 
	C107.166740,113.394676 106.442177,113.725922 105.405914,114.110733 
	C102.526154,112.959366 99.958107,111.754425 97.087288,110.056412 
	C96.590584,109.290268 96.332733,109.107239 96.010963,109.014236 
	C95.224258,108.359657 94.437553,107.705078 93.332413,107.012390 
	C91.344643,103.897430 89.675301,100.820595 87.994736,97.379074 
	C88.432022,96.248451 89.421211,95.292206 89.230774,94.751167 
	C88.579605,92.901100 87.513924,91.196938 86.353920,89.224380 
	C86.062935,87.947548 86.024406,86.883446 86.206650,85.251419 
	C85.957550,84.122971 85.487686,83.562439 85.017822,83.001907 
	C84.678261,81.904465 84.338699,80.807022 83.978638,79.360077 
	C84.722084,79.005020 85.486008,78.999466 86.631653,78.990387 
	C88.777237,82.548149 90.541115,86.109444 92.602570,89.843956 
z"/>
<path fill="#015EA1" opacity="1.000000" stroke="none" 
	d="
M108.287918,113.040863 
	C104.954865,109.942398 102.018425,106.821350 99.398743,103.358810 
	C101.967209,103.653496 104.492119,105.984657 106.333176,102.003998 
	C107.111084,102.002579 107.555603,102.001595 108.047958,102.377602 
	C110.120430,103.470505 112.145065,104.186417 114.169693,104.902336 
	C114.899216,105.542969 115.628746,106.183601 116.646759,107.282166 
	C116.953125,108.159966 116.971008,108.579826 116.988892,108.999695 
	C114.220772,110.339226 111.452652,111.678749 108.287918,113.040863 
z"/>
<path fill="#109DDB" opacity="1.000000" stroke="none" 
	d="
M134.930847,91.255630 
	C135.087524,90.953781 135.492935,91.005615 135.695801,91.017838 
	C134.925583,94.095161 133.952484,97.160278 132.964813,100.605080 
	C132.678345,101.465958 132.406464,101.947144 131.756744,102.892593 
	C130.224258,105.544250 129.069626,107.731659 127.914978,109.919060 
	C126.803497,108.051880 125.692024,106.184700 124.291397,104.140060 
	C124.262009,103.155579 124.521774,102.348549 124.919899,101.246536 
	C128.296906,97.820206 131.535538,94.688843 134.930847,91.255630 
z"/>
<path fill="#01589C" opacity="1.000000" stroke="none" 
	d="
M128.082657,110.268875 
	C129.069626,107.731659 130.224258,105.544250 131.647339,103.147079 
	C132.428665,104.554276 132.941513,106.171227 133.454361,107.788185 
	C133.694992,107.635063 133.935623,107.481949 134.176254,107.328827 
	C135.356415,109.002106 136.536560,110.675385 137.853302,112.685165 
	C134.473709,113.313599 130.211685,116.628563 128.082657,110.268875 
z"/>
<path fill="#0986CB" opacity="1.000000" stroke="none" 
	d="
M117.309296,108.962601 
	C116.971008,108.579826 116.953125,108.159966 116.900330,107.428406 
	C117.347260,107.085739 117.829102,107.054779 118.672760,107.030014 
	C118.566284,107.665985 118.097992,108.295753 117.309296,108.962601 
z"/>
<path fill="#026EB0" opacity="1.000000" stroke="none" 
	d="
M39.654121,75.998306 
	C39.999695,78.091591 39.999695,80.183487 39.999695,83.329590 
	C38.324280,81.842232 37.446354,81.062851 36.260487,80.125015 
	C36.443310,78.767769 36.934078,77.568985 37.674461,76.167213 
	C38.385571,75.975136 38.847061,75.986031 39.654121,75.998306 
z"/>
<path fill="#0172B1" opacity="1.000000" stroke="none" 
	d="
M108.000122,102.000610 
	C107.555603,102.001595 107.111084,102.002579 106.173386,101.694534 
	C103.260300,100.391708 100.506050,96.581169 98.870346,102.193832 
	C97.588654,100.041092 96.306953,97.888344 94.965622,95.376587 
	C95.371094,95.010201 95.836189,95.002838 96.830093,95.323441 
	C98.977020,96.088028 100.641914,97.001938 102.202301,96.849083 
	C104.525742,96.621490 106.775383,95.640625 109.056419,94.980301 
	C110.327492,96.754028 111.598564,98.527763 112.573242,100.602371 
	C110.435196,99.647469 108.488815,97.983543 108.000122,102.000610 
z"/>
<path fill="#0079B9" opacity="1.000000" stroke="none" 
	d="
M109.050659,94.607010 
	C106.775383,95.640625 104.525742,96.621490 102.202301,96.849083 
	C100.641914,97.001938 98.977020,96.088028 97.178070,95.319717 
	C98.109680,94.325531 99.149818,93.329681 100.349495,93.069489 
	C102.896645,92.517059 105.526855,92.347603 108.533569,92.007256 
	C108.977722,92.740158 109.011307,93.486931 109.050659,94.607010 
z"/>
<path fill="#0268AB" opacity="1.000000" stroke="none" 
	d="
M108.047958,102.377602 
	C108.488815,97.983543 110.435196,99.647469 112.588608,100.959061 
	C113.271210,102.089714 113.642036,103.164551 114.091278,104.570862 
	C112.145065,104.186417 110.120430,103.470505 108.047958,102.377602 
z"/>
<path fill="#01589C" opacity="1.000000" stroke="none" 
	d="
M37.808735,99.752350 
	C36.413101,103.380455 36.963722,106.049210 40.847687,107.900253 
	C39.287636,110.333702 37.391693,112.618568 35.176445,115.046051 
	C31.145958,115.706512 27.434778,116.224365 23.126497,116.381744 
	C22.735844,112.231300 22.942293,108.441330 23.148741,104.651367 
	C23.148741,104.651367 23.353174,104.376694 23.651764,104.436890 
	C23.950354,104.497093 24.113064,104.371300 24.113064,104.371300 
	C24.113064,104.371300 23.680237,104.300476 23.680237,104.300476 
	C24.104914,102.775909 24.529593,101.251335 25.058014,99.339333 
	C26.371651,100.892746 27.581543,102.833595 28.791437,104.774452 
	C29.050512,104.674263 29.309589,104.574074 29.568665,104.473885 
	C29.188911,101.970634 28.809158,99.467384 28.185324,95.355194 
	C31.825344,96.953186 34.712280,98.220566 37.808735,99.752350 
z"/>
<path fill="#FDFDFD" opacity="1.000000" stroke="none" 
	d="
M40.736305,114.958740 
	C40.746170,115.107307 40.510502,115.283730 40.158123,115.326263 
	C40.041412,115.192360 40.490768,114.986595 40.736305,114.958740 
z"/>
<path fill="#05A0E2" opacity="1.000000" stroke="none" 
	d="
M150.979675,63.720955 
	C149.414810,67.066727 147.822220,70.111023 146.185791,73.131561 
	C144.520691,76.205032 142.812408,79.255112 141.076172,82.665344 
	C141.029297,83.015244 141.008224,83.019676 140.739441,82.821671 
	C140.279083,81.975136 140.087509,81.326599 139.895935,80.678070 
	C139.906479,79.698318 139.917007,78.718575 139.945084,77.371658 
	C141.530075,72.559883 143.097549,68.115273 144.814529,63.330982 
	C145.464493,62.730869 145.964966,62.470436 146.724548,62.098167 
	C148.300034,62.460575 149.616364,62.934818 150.979675,63.720955 
z"/>
<path fill="#A2E5F8" opacity="1.000000" stroke="none" 
	d="
M174.995026,57.003708 
	C175.111908,57.144253 175.233749,57.281040 175.355591,57.417831 
	C175.274872,57.366291 175.194153,57.314758 175.060455,57.126610 
	C175.007462,56.989994 175.000000,56.999958 174.995026,57.003708 
z"/>
<path fill="#FDFDFD" opacity="1.000000" stroke="none" 
	d="
M148.999390,111.999237 
	C149.229996,111.113304 149.461212,110.228142 149.692429,109.342972 
	C150.007523,109.461975 150.322617,109.580978 150.637711,109.699989 
	C150.280136,110.374466 149.922562,111.048943 149.283112,111.862206 
	C149.001221,112.000984 149.000000,112.000000 148.999390,111.999237 
z"/>
<path fill="#2398D2" opacity="1.000000" stroke="none" 
	d="
M22.892925,104.823364 
	C22.942293,108.441330 22.735844,112.231300 22.682451,116.340782 
	C20.888100,116.735123 18.940693,116.809937 16.569296,116.868347 
	C16.369247,116.143044 16.593187,115.434158 16.981537,114.471909 
	C18.976336,111.144150 20.806723,108.069756 22.892925,104.823364 
z"/>
<path fill="#02609B" opacity="1.000000" stroke="none" 
	d="
M85.098877,53.360828 
	C84.827995,53.635292 84.425430,53.748116 84.015106,53.804089 
	C83.944145,53.813766 83.840317,53.582436 83.751671,53.462425 
	C84.155968,53.368267 84.560265,53.274105 85.098877,53.360828 
z"/>
<path fill="#EEEEEE" opacity="1.000000" stroke="none" 
	d="
M240.730530,60.744942 
	C241.527939,58.586246 242.195114,56.638458 243.453796,55.212933 
	C243.875595,54.735203 246.550446,55.216961 246.896515,55.909378 
	C247.701126,57.519173 248.059677,59.553127 247.907486,61.356846 
	C247.828873,62.288467 246.039398,63.958366 245.431915,63.792927 
	C243.781754,63.343517 242.349792,62.092865 240.730530,60.744942 
z"/>
<path fill="#018ACB" opacity="1.000000" stroke="none" 
	d="
M139.634521,80.902138 
	C140.087509,81.326599 140.279083,81.975136 140.741699,82.830292 
	C140.399353,83.449829 139.785965,83.862740 139.002441,84.013565 
	C139.012573,82.876389 139.192841,82.001297 139.634521,80.902138 
z"/>
<path fill="#0FABE3" opacity="1.000000" stroke="none" 
	d="
M85.003716,83.335281 
	C85.487686,83.562439 85.957550,84.122971 86.192886,84.853043 
	C85.958359,85.022598 85.463203,85.014030 85.215286,85.008713 
	C84.974792,84.558479 84.982201,84.113571 85.003716,83.335281 
z"/>
<path fill="#2398D2" opacity="1.000000" stroke="none" 
	d="
M23.711689,104.313675 
	C23.680237,104.300476 24.113064,104.371300 24.113064,104.371300 
	C24.113064,104.371300 23.950354,104.497093 23.820820,104.409874 
	C23.691284,104.322655 23.743143,104.326866 23.711689,104.313675 
z"/>
<path fill="#109DDB" opacity="1.000000" stroke="none" 
	d="
M94.007095,109.989548 
	C94.254768,110.338585 94.505028,110.685982 94.734116,111.046814 
	C94.739449,111.055222 94.506485,111.214912 94.384674,111.304039 
	C94.261292,111.032799 94.137917,110.761559 94.006912,110.245529 
	C93.999298,110.000740 94.007095,109.989548 94.007095,109.989548 
z"/>
<path fill="#109DDB" opacity="1.000000" stroke="none" 
	d="
M93.993790,110.006134 
	C93.436943,109.837257 92.885590,109.662979 92.166473,109.245316 
	C91.998711,109.001930 92.000000,109.000000 92.001030,108.998993 
	C92.558174,109.165581 93.114288,109.333191 93.838745,109.745171 
	C94.007095,109.989548 93.999298,110.000740 93.993790,110.006134 
z"/>
<path fill="#109DDB" opacity="1.000000" stroke="none" 
	d="
M96.118187,109.228165 
	C96.332733,109.107239 96.590584,109.290268 96.887634,109.781052 
	C96.679207,109.890762 96.424095,109.705200 96.118187,109.228165 
z"/>
<path fill="#F5FBFA" opacity="1.000000" stroke="none" 
	d="
M266.637451,55.011154 
	C272.136292,55.996342 272.872650,57.875896 270.002014,63.532959 
	C267.931641,63.135853 264.706757,62.599209 264.570160,61.628120 
	C264.283234,59.588352 265.618683,57.320362 266.637451,55.011154 
z"/>
<path fill="#057FC0" opacity="1.000000" stroke="none" 
	d="
M60.600906,63.276249 
	C60.441109,63.149723 60.418037,62.931114 60.394966,62.712509 
	C60.509186,62.869728 60.623409,63.026947 60.600906,63.276249 
z"/>
<path fill="#0268AB" opacity="1.000000" stroke="none" 
	d="
M98.895805,102.398209 
	C100.506050,96.581169 103.260300,100.391708 105.839989,101.694969 
	C104.492119,105.984657 101.967209,103.653496 99.366364,103.010246 
	C99.017227,103.003174 98.921265,102.602592 98.895805,102.398209 
z"/>
</svg>