<svg version="1.1" id="Layer_1" xmlns="http://www.w3.org/2000/svg" xmlns:xlink="http://www.w3.org/1999/xlink" x="0px" y="0px"
	 width="100%" viewBox="0 0 1200 1200" enable-background="new 0 0 1200 1200" xml:space="preserve">
<path fill="#6C429C" opacity="1.000000" stroke="none" 
	d="
M1.000000,634.000000 
	C1.000000,612.312439 1.000000,590.624878 1.305824,568.179993 
	C3.738889,547.532104 5.444379,527.585205 8.092783,507.764282 
	C12.009919,478.448181 19.138184,449.810638 27.979616,421.599487 
	C50.950073,348.305664 86.738136,281.908539 135.146225,222.285522 
	C136.087082,221.126694 136.333572,219.404083 136.934433,217.956360 
	C136.964828,217.968231 136.934769,217.910294 137.202011,218.247589 
	C138.982651,216.209198 140.496048,213.833511 141.986145,211.314117 
	C141.962845,211.170395 142.168823,210.964111 142.168823,210.964111 
	C142.168823,210.964111 142.456558,211.010071 142.757965,211.378998 
	C144.025375,210.468781 144.991379,209.189621 145.969925,207.947021 
	C145.982468,207.983582 145.908798,207.960236 146.261581,208.088135 
	C146.736053,207.779312 146.857742,207.342575 146.982208,206.946045 
	C146.984985,206.986267 146.904343,206.985474 147.256256,207.020172 
	C147.740372,206.638428 147.872604,206.222000 148.092560,205.488770 
	C157.096344,196.108170 166.012421,187.044357 175.168213,177.883850 
	C175.597961,177.507858 175.787994,177.228546 175.988937,176.974609 
	C175.999847,177.000000 175.949097,176.978134 176.187454,176.877258 
	C176.610870,176.493195 176.795944,176.210037 177.125854,175.635193 
	C179.157639,173.556778 181.044571,171.770035 183.300781,169.996170 
	C185.654465,171.381180 187.905869,172.486099 189.585052,174.163727 
	C281.941498,266.433929 374.246063,358.756012 466.595978,451.032745 
	C468.174164,452.609711 470.241547,453.697113 472.178131,455.472473 
	C472.981537,518.162781 470.551453,580.427307 474.051514,643.343750 
	C471.782837,639.633057 469.812103,636.285095 467.723846,633.012207 
	C411.211395,544.439941 354.691467,455.872437 298.151489,367.317749 
	C295.114746,362.561493 292.870544,356.124390 288.480591,353.737122 
	C284.082275,351.345337 277.455475,352.994110 271.805084,352.974091 
	C260.359039,352.933472 248.912766,352.961975 237.431458,352.961975 
	C237.431458,467.187469 237.431458,580.875061 237.431458,694.531494 
	C250.758026,694.531494 263.680756,694.531494 277.117188,694.531494 
	C276.500641,596.562988 277.831757,498.895691 276.355621,401.293060 
	C279.199890,406.799957 281.826416,412.815887 285.252075,418.335907 
	C294.031006,432.481903 303.141785,446.422516 312.161224,460.418610 
	C361.678253,537.258118 411.225922,614.077820 460.662231,690.969238 
	C462.511627,693.845764 464.387238,695.098450 467.816620,694.912415 
	C473.133789,694.624023 478.478119,694.836426 483.810913,694.836487 
	C493.098114,694.836487 502.385315,694.836487 512.210449,694.836487 
	C512.210449,692.348022 512.210449,690.391357 512.210449,688.434692 
	C512.210449,626.940735 512.207764,565.446777 512.222778,503.952820 
	C512.223206,501.963135 512.404968,499.973480 512.814209,498.041077 
	C514.485901,499.301270 515.913269,500.436462 517.195312,501.717224 
	C543.516357,528.011230 569.810608,554.332092 596.157837,580.599731 
	C597.508362,581.946228 599.285095,582.865295 600.931030,584.448730 
	C600.998718,621.451050 600.998718,657.987854 600.998718,694.836487 
	C603.706055,694.836487 605.680786,694.833740 607.655457,694.836914 
	C642.437256,694.892944 677.219055,694.949707 712.029907,695.351318 
	C713.417908,697.343079 714.651550,699.114807 716.153748,700.618347 
	C766.173950,750.682007 816.219910,800.720093 866.261902,850.762024 
	C920.307190,904.807373 974.363464,958.841797 1028.343750,1012.951904 
	C1029.973145,1014.585144 1030.808838,1017.010071 1031.870483,1019.362427 
	C1019.882568,1031.104126 1008.038574,1042.549438 995.840637,1053.967041 
	C995.329834,1054.324829 995.172974,1054.710327 995.015503,1055.056152 
	C995.014893,1055.016357 995.094238,1055.022095 994.720337,1054.956421 
	C994.245117,1055.290649 994.143799,1055.690674 994.028809,1056.053467 
	C994.015259,1056.016357 994.088745,1056.045288 993.680664,1055.874268 
	C992.511719,1056.983276 991.750793,1058.263428 991.012939,1059.687256 
	C990.925659,1060.052246 990.760986,1060.105469 990.277405,1059.595703 
	C988.038269,1061.155640 986.063782,1063.110596 984.060425,1065.050537 
	C984.031494,1065.035400 984.054993,1065.096313 983.828674,1064.739990 
	C982.334290,1065.152710 980.952454,1065.782349 979.814575,1066.710815 
	C930.860779,1106.657104 876.927673,1138.090942 818.019287,1160.878906 
	C764.274841,1181.669434 708.729797,1194.795654 651.169922,1199.036499 
	C645.098022,1199.483887 639.055908,1200.335815 633.000000,1201.000000 
	C611.645752,1201.000000 590.291565,1201.000000 568.193726,1200.679565 
	C545.755005,1197.919189 523.992432,1195.960449 502.379730,1192.932495 
	C465.119873,1187.712036 428.966705,1177.729248 393.785187,1164.614502 
	C291.086761,1126.331787 204.864883,1064.794556 135.424377,979.910706 
	C91.846832,926.641602 58.522839,867.537598 35.433540,802.723877 
	C17.999287,753.784363 6.814266,703.458008 2.965501,651.571228 
	C2.529835,645.697815 1.665537,639.856323 1.000000,634.000000 
M742.480042,893.631287 
	C742.106506,890.043335 741.732971,886.455383 741.272766,882.034546 
	C768.217834,882.034546 794.392639,882.034546 820.749207,882.034546 
	C820.749207,876.617615 820.949158,871.958923 820.711304,867.322693 
	C820.028442,854.010681 816.508057,841.509766 807.256165,831.614624 
	C789.018677,812.109131 753.534607,814.460449 736.244263,835.765686 
	C723.279785,851.740479 720.150085,870.150208 722.665161,889.840393 
	C724.418335,903.565369 729.837891,915.677673 740.376648,925.200012 
	C758.189148,941.294373 792.927856,938.392090 810.387817,926.791382 
	C811.364990,926.142029 812.438721,924.803833 812.490112,923.739075 
	C812.718018,919.020325 812.588867,914.284363 812.588867,910.235046 
	C804.950562,913.449097 797.895935,917.412659 790.322876,919.420349 
	C766.259277,925.799744 748.447632,916.155884 742.480042,893.631287 
M427.402496,916.277527 
	C414.959900,911.224243 406.122650,902.411255 399.943207,890.576294 
	C393.802338,878.815308 392.547638,866.296997 392.691559,853.292236 
	C393.159790,810.980408 427.694702,782.889648 469.015930,791.731995 
	C476.401398,793.312439 483.525177,796.116028 491.071472,798.448059 
	C491.071472,794.311707 490.795319,789.987488 491.153778,785.716553 
	C491.473877,781.903076 490.087097,780.154297 486.477631,778.980408 
	C473.778351,774.850037 460.762085,773.395874 447.537872,774.250916 
	C424.219604,775.758545 404.899963,785.357910 390.447479,803.934875 
	C375.267303,823.447266 370.973450,845.925049 373.640869,869.949890 
	C375.977844,890.998535 384.809937,908.739624 401.629761,922.198608 
	C426.932617,942.445435 466.779205,938.591614 488.619812,928.101929 
	C489.597778,927.632202 490.713623,926.246582 490.759033,925.242188 
	C490.980316,920.347412 490.859131,915.437134 490.859131,910.123962 
	C470.380890,920.376526 449.749115,923.752258 427.402496,916.277527 
M517.049744,851.626953 
	C511.780670,863.837891 511.716583,876.717529 513.365112,889.454468 
	C515.172913,903.421875 521.444214,915.622742 532.668762,924.473267 
	C550.725342,938.710754 570.925293,940.505615 591.429138,931.300659 
	C611.638184,922.228088 621.491577,904.999817 622.907349,883.354309 
	C623.496277,874.349854 623.031860,864.876343 620.849243,856.166748 
	C614.591797,831.197327 596.186768,817.845398 570.499023,817.791504 
	C545.775696,817.739624 527.565002,827.855530 517.049744,851.626953 
M651.992676,917.498108 
	C651.992676,922.907104 651.992676,928.316162 651.992676,933.490723 
	C658.761597,933.490723 664.664734,933.490723 670.859802,933.490723 
	C670.859802,931.436768 670.860474,929.788574 670.859680,928.140320 
	C670.851074,910.153076 670.931274,892.165100 670.798157,874.178772 
	C670.725830,864.408325 673.164978,855.412109 678.300476,847.160095 
	C682.993469,839.619141 689.933716,835.752563 698.765869,836.089600 
	C702.769958,836.242371 706.727722,837.610352 710.942749,838.475586 
	C710.942749,833.640564 711.183289,828.799072 710.792786,824.008972 
	C710.679016,822.613647 708.954834,820.471252 707.644043,820.191162 
	C697.366150,817.994812 687.984924,820.034912 680.701660,827.944824 
	C677.072632,831.886230 674.301880,836.617920 670.833313,841.420776 
	C670.833313,834.717957 670.833313,828.216309 670.833313,821.472046 
	C664.350403,821.472046 658.446472,821.472046 651.992676,821.472046 
	C651.992676,853.314697 651.992676,884.906616 651.992676,917.498108 
M123.624565,693.936829 
	C124.445557,694.500916 125.241096,695.106995 126.091354,695.622925 
	C136.370422,701.859131 149.578629,700.298828 158.245132,691.838440 
	C167.110474,683.183960 168.915833,669.883179 162.655365,659.346863 
	C156.300751,648.652100 143.738815,643.451599 132.215240,647.103027 
	C112.555664,653.332520 106.000771,679.118042 123.624565,693.936829 
z"/>
<path fill="#5C2D91" opacity="1.000000" stroke="none" 
	d="
M600.863281,583.983337 
	C599.285095,582.865295 597.508362,581.946228 596.157837,580.599731 
	C569.810608,554.332092 543.516357,528.011230 517.195312,501.717224 
	C515.913269,500.436462 514.485901,499.301270 512.713379,497.582947 
	C512.300476,449.177612 512.300476,401.287628 512.300476,353.334473 
	C498.650391,353.334473 485.624664,353.334473 472.277069,353.334473 
	C472.277069,355.678375 472.280548,357.653137 472.276520,359.627869 
	C472.211761,391.422913 472.146118,423.217926 472.080658,455.012970 
	C470.241547,453.697113 468.174164,452.609711 466.595978,451.032745 
	C374.246063,358.756012 281.941498,266.433929 189.585052,174.163727 
	C187.905869,172.486099 185.654465,171.381180 183.435608,169.686295 
	C186.738251,166.138489 190.213028,162.841782 193.823761,159.701385 
	C206.268570,148.877655 218.186462,137.338196 231.373749,127.504509 
	C249.775314,113.782539 268.909485,100.998909 288.147705,88.454041 
	C313.203766,72.115456 340.067291,59.009174 367.555328,47.397034 
	C397.189270,34.878399 427.634216,24.471889 459.116638,17.519970 
	C475.118713,13.986392 491.204041,10.720801 507.375458,8.096199 
	C521.312500,5.834230 535.428711,4.683614 549.450684,2.921504 
	C550.366516,2.806408 551.153259,1.664366 552.000000,1.000009 
	C584.354248,1.000000 616.708435,1.000000 649.472839,1.427651 
	C650.890137,2.236299 651.871948,2.849810 652.908325,2.962983 
	C665.831970,4.374302 678.921448,4.869728 691.658569,7.254559 
	C714.681702,11.565295 737.615417,16.503992 760.368103,22.072769 
	C792.154968,29.852718 822.737793,41.404091 852.327515,55.227516 
	C888.015381,71.899788 922.086426,91.492661 953.893250,114.920113 
	C976.496826,131.568939 998.273743,149.206726 1018.210938,168.933258 
	C1032.200562,182.775040 1045.762573,197.152298 1058.413452,212.216064 
	C1072.027832,228.427246 1085.026855,245.255753 1097.049194,262.674286 
	C1108.220459,278.859436 1118.110352,295.970367 1127.921631,313.042969 
	C1143.196411,339.622467 1155.854858,367.525879 1165.803955,396.479187 
	C1173.359619,418.467377 1179.676514,440.927216 1185.512207,463.444733 
	C1189.575684,479.124329 1192.322876,495.189026 1194.849243,511.209229 
	C1196.869751,524.021484 1197.642456,537.029175 1199.089233,549.936646 
	C1199.173340,550.686401 1200.338013,551.315063 1201.000000,552.000000 
	C1201.000000,584.354248 1201.000000,616.708435 1200.573364,649.470825 
	C1199.765137,650.885803 1199.150391,651.867188 1199.037231,652.903442 
	C1197.625977,665.827637 1197.088989,678.906677 1194.751099,691.657043 
	C1190.766968,713.387329 1186.099121,735.017334 1180.929688,756.499573 
	C1172.722412,790.605042 1160.407837,823.344055 1145.320801,854.955566 
	C1136.950073,872.494690 1127.819946,889.735291 1117.969238,906.485352 
	C1108.680054,922.280334 1098.448364,937.578125 1087.792847,952.495605 
	C1078.345947,965.721130 1068.003540,978.338196 1057.573608,990.820374 
	C1049.438110,1000.556641 1040.561646,1009.673706 1032.014404,1019.065918 
	C1030.808838,1017.010071 1029.973145,1014.585144 1028.343750,1012.951904 
	C974.363464,958.841797 920.307190,904.807373 866.261902,850.762024 
	C816.219910,800.720093 766.173950,750.682007 716.153748,700.618347 
	C714.651550,699.114807 713.417908,697.343079 712.493713,695.278198 
	C736.035889,694.860107 759.143372,694.860107 782.583130,694.860107 
	C782.583130,682.062256 782.583130,669.845154 782.583130,657.170288 
	C780.540710,657.170288 778.746399,657.170227 776.952087,657.170227 
	C753.294128,657.170227 729.636108,657.197693 705.978210,657.158508 
	C694.322449,657.139282 682.666870,656.996765 670.973389,656.571289 
	C661.819214,646.935669 652.708008,637.633728 643.563599,628.364563 
	C643.268311,628.065247 642.632690,628.101624 642.073425,627.520264 
	C641.991089,597.783386 641.991089,568.507690 641.991089,538.743164 
	C683.231445,538.743164 723.973083,538.743164 764.805176,538.743164 
	C764.805176,526.532288 764.805176,514.816345 764.805176,502.617218 
	C723.702454,502.617218 682.958069,502.617218 642.269287,502.617218 
	C642.269287,464.551788 642.269287,426.975830 642.269287,388.930878 
	C686.344177,388.930878 730.085449,388.930878 773.834778,388.930878 
	C773.834778,376.729889 773.834778,365.002716 773.834778,353.271851 
	C716.103149,353.271851 658.703064,353.271851 600.997803,353.271851 
	C600.997803,355.385925 600.997803,357.193176 600.997803,359.000458 
	C600.997803,414.997986 601.008911,470.995514 600.991577,526.993042 
	C600.985718,545.989807 600.908142,564.986572 600.863281,583.983337 
M911.777710,551.500000 
	C911.777710,599.106873 911.777710,646.713745 911.777710,694.450928 
	C925.342529,694.450928 938.369324,694.450928 951.913513,694.450928 
	C951.913513,592.515564 951.913513,490.974365 951.913513,388.972015 
	C985.167542,388.972015 1017.902649,388.972015 1050.717407,388.972015 
	C1050.717407,376.773071 1050.717407,365.039703 1050.717407,353.265076 
	C971.549072,353.265076 892.666260,353.265076 813.681763,353.265076 
	C813.681763,365.303802 813.681763,377.039398 813.681763,389.220551 
	C846.434082,389.220551 878.853943,389.220551 911.087341,389.220551 
	C911.412537,389.957977 911.655640,390.251831 911.655945,390.545929 
	C911.707764,443.863922 911.742310,497.181976 911.777710,551.500000 
z"/>
<path fill="#000000" opacity="1.000000" stroke="none" 
	d="
M1201.000000,551.531372 
	C1200.338013,551.315063 1199.173340,550.686401 1199.089233,549.936646 
	C1197.642456,537.029175 1196.869751,524.021484 1194.849243,511.209229 
	C1192.322876,495.189026 1189.575684,479.124329 1185.512207,463.444733 
	C1179.676514,440.927216 1173.359619,418.467377 1165.803955,396.479187 
	C1155.854858,367.525879 1143.196411,339.622467 1127.921631,313.042969 
	C1118.110352,295.970367 1108.220459,278.859436 1097.049194,262.674286 
	C1085.026855,245.255753 1072.027832,228.427246 1058.413452,212.216064 
	C1045.762573,197.152298 1032.200562,182.775040 1018.210938,168.933258 
	C998.273743,149.206726 976.496826,131.568939 953.893250,114.920113 
	C922.086426,91.492661 888.015381,71.899788 852.327515,55.227516 
	C822.737793,41.404091 792.154968,29.852718 760.368103,22.072769 
	C737.615417,16.503992 714.681702,11.565295 691.658569,7.254559 
	C678.921448,4.869728 665.831970,4.374302 652.908325,2.962983 
	C651.871948,2.849810 650.890137,2.236299 649.941528,1.427651 
	C833.593750,1.000000 1017.187500,1.000000 1201.000000,1.000000 
	C1201.000000,184.354172 1201.000000,367.708435 1201.000000,551.531372 
z"/>
<path fill="#000000" opacity="1.000000" stroke="none" 
	d="
M551.531372,1.000009 
	C551.153259,1.664366 550.366516,2.806408 549.450684,2.921504 
	C535.428711,4.683614 521.312500,5.834230 507.375458,8.096199 
	C491.204041,10.720801 475.118713,13.986392 459.116638,17.519970 
	C427.634216,24.471889 397.189270,34.878399 367.555328,47.397034 
	C340.067291,59.009174 313.203766,72.115456 288.147705,88.454041 
	C268.909485,100.998909 249.775314,113.782539 231.373749,127.504509 
	C218.186462,137.338196 206.268570,148.877655 193.823761,159.701385 
	C190.213028,162.841782 186.738251,166.138489 183.066315,169.673416 
	C181.044571,171.770035 179.157639,173.556778 176.881638,175.728958 
	C176.311401,176.402313 176.130249,176.690216 175.949097,176.978134 
	C175.949097,176.978134 175.999847,177.000000 175.742935,177.062378 
	C175.300171,177.410019 175.114334,177.695282 174.928497,177.980545 
	C166.012421,187.044357 157.096344,196.108170 147.827026,205.600800 
	C147.283966,206.348221 147.094162,206.666855 146.904343,206.985474 
	C146.904343,206.985474 146.984985,206.986267 146.717438,207.017471 
	C146.269531,207.352524 146.089172,207.656387 145.908798,207.960236 
	C145.908798,207.960236 145.982468,207.983582 145.652679,208.062164 
	C144.367447,209.097183 143.412003,210.053635 142.456558,211.010071 
	C142.456558,211.010071 142.168823,210.964111 142.168823,210.964111 
	C142.168823,210.964111 141.962845,211.170395 141.742950,211.576523 
	C139.993607,213.958527 138.464188,215.934418 136.934769,217.910294 
	C136.934769,217.910294 136.964828,217.968231 136.622742,218.071381 
	C131.770157,223.365067 127.034424,228.378769 122.793404,233.780838 
	C112.075859,247.432526 101.118248,260.931427 91.097229,275.086456 
	C72.768433,300.976501 56.586109,328.230072 43.528015,357.164185 
	C34.375526,377.444275 25.641365,397.962250 17.885305,418.807434 
	C11.972199,434.699524 7.903431,451.276764 2.929487,467.523285 
	C2.736580,468.153351 1.663131,468.513855 0.999996,469.000000 
	C1.000000,313.066986 1.000000,157.133972 1.000000,1.000000 
	C184.354172,1.000000 367.708435,1.000000 551.531372,1.000009 
z"/>
<path fill="#000000" opacity="1.000000" stroke="none" 
	d="
M1031.870483,1019.362366 
	C1040.561646,1009.673706 1049.438110,1000.556641 1057.573608,990.820374 
	C1068.003540,978.338196 1078.345947,965.721130 1087.792847,952.495605 
	C1098.448364,937.578125 1108.680054,922.280334 1117.969238,906.485352 
	C1127.819946,889.735291 1136.950073,872.494690 1145.320801,854.955566 
	C1160.407837,823.344055 1172.722412,790.605042 1180.929688,756.499573 
	C1186.099121,735.017334 1190.766968,713.387329 1194.751099,691.657043 
	C1197.088989,678.906677 1197.625977,665.827637 1199.037231,652.903442 
	C1199.150391,651.867188 1199.765137,650.885803 1200.573364,649.939453 
	C1201.000000,833.587830 1201.000000,1017.175598 1201.000000,1201.000000 
	C1045.312500,1201.000000 889.624939,1201.000000 733.171509,1200.657471 
	C732.892090,1199.890991 733.312805,1199.237793 733.874756,1199.076660 
	C744.502319,1196.027954 755.219543,1193.272095 765.773804,1189.990967 
	C798.111206,1179.938110 829.449524,1167.378296 859.247131,1151.232178 
	C875.615051,1142.363159 892.102661,1133.579224 907.712891,1123.483521 
	C925.583435,1111.926147 942.765564,1099.255981 959.800293,1086.474243 
	C968.393860,1080.026245 976.001465,1072.264160 984.054932,1065.096313 
	C984.054993,1065.096313 984.031494,1065.035400 984.407959,1065.019531 
	C986.703735,1063.332642 988.622925,1061.661621 990.542114,1059.990601 
	C990.760986,1060.105469 990.925659,1060.052246 991.240356,1059.434326 
	C992.325989,1058.040283 993.207336,1057.042725 994.088745,1056.045166 
	C994.088745,1056.045288 994.015259,1056.016357 994.291626,1055.978516 
	C994.743347,1055.634521 994.918762,1055.328247 995.094238,1055.022095 
	C995.094238,1055.022095 995.014893,1055.016357 995.292114,1054.977295 
	C995.777771,1054.623779 995.986145,1054.309204 996.194580,1053.994751 
	C1008.038574,1042.549438 1019.882568,1031.104126 1031.870483,1019.362366 
z"/>
<path fill="#000000" opacity="1.000000" stroke="none" 
	d="
M436.000000,1201.000000 
	C291.071716,1201.000000 146.143433,1201.000000 1.000000,1201.000000 
	C1.000000,1056.310059 1.000000,911.620056 1.343027,766.167542 
	C2.119202,766.058716 2.733670,766.655457 2.959179,767.374207 
	C9.818681,789.238403 15.414692,811.597534 23.794172,832.860107 
	C33.123390,856.532776 44.473129,879.464294 55.917774,902.228577 
	C63.407154,917.125549 71.949814,931.607361 81.246658,945.451904 
	C92.600578,962.359680 104.906929,978.663513 117.430183,994.738708 
	C126.769241,1006.726685 136.708145,1018.311096 147.111298,1029.388428 
	C157.434113,1040.380127 168.533463,1050.660522 179.552811,1060.974487 
	C188.057739,1068.934937 196.497894,1077.089111 205.794189,1084.052734 
	C223.883499,1097.603027 242.347961,1110.680054 261.032471,1123.401611 
	C286.877777,1140.998657 314.645294,1155.160645 343.255127,1167.685059 
	C372.823059,1180.628662 403.175781,1191.299683 434.527344,1199.073730 
	C435.139771,1199.225586 435.514435,1200.336548 436.000000,1201.000000 
z"/>
<path fill="#FFFEFF" opacity="1.000000" stroke="none" 
	d="
M436.468658,1201.000000 
	C435.514435,1200.336548 435.139771,1199.225586 434.527344,1199.073730 
	C403.175781,1191.299683 372.823059,1180.628662 343.255127,1167.685059 
	C314.645294,1155.160645 286.877777,1140.998657 261.032471,1123.401611 
	C242.347961,1110.680054 223.883499,1097.603027 205.794189,1084.052734 
	C196.497894,1077.089111 188.057739,1068.934937 179.552811,1060.974487 
	C168.533463,1050.660522 157.434113,1040.380127 147.111298,1029.388428 
	C136.708145,1018.311096 126.769241,1006.726685 117.430183,994.738708 
	C104.906929,978.663513 92.600578,962.359680 81.246658,945.451904 
	C71.949814,931.607361 63.407154,917.125549 55.917774,902.228577 
	C44.473129,879.464294 33.123390,856.532776 23.794172,832.860107 
	C15.414692,811.597534 9.818681,789.238403 2.959179,767.374207 
	C2.733670,766.655457 2.119202,766.058716 1.343027,765.702515 
	C1.000000,722.312439 1.000000,678.624878 1.000000,634.468628 
	C1.665537,639.856323 2.529835,645.697815 2.965501,651.571228 
	C6.814266,703.458008 17.999287,753.784363 35.433540,802.723877 
	C58.522839,867.537598 91.846832,926.641602 135.424377,979.910706 
	C204.864883,1064.794556 291.086761,1126.331787 393.785187,1164.614502 
	C428.966705,1177.729248 465.119873,1187.712036 502.379730,1192.932495 
	C523.992432,1195.960449 545.755005,1197.919189 567.725098,1200.679565 
	C524.312439,1201.000000 480.624878,1201.000000 436.468658,1201.000000 
z"/>
<path fill="#FEFEFE" opacity="1.000000" stroke="none" 
	d="
M0.999996,469.468658 
	C1.663131,468.513855 2.736580,468.153351 2.929487,467.523285 
	C7.903431,451.276764 11.972199,434.699524 17.885305,418.807434 
	C25.641365,397.962250 34.375526,377.444275 43.528015,357.164185 
	C56.586109,328.230072 72.768433,300.976501 91.097229,275.086456 
	C101.118248,260.931427 112.075859,247.432526 122.793404,233.780838 
	C127.034424,228.378769 131.770157,223.365067 136.592346,218.059509 
	C136.333572,219.404083 136.087082,221.126694 135.146225,222.285522 
	C86.738136,281.908539 50.950073,348.305664 27.979616,421.599487 
	C19.138184,449.810638 12.009919,478.448181 8.092783,507.764282 
	C5.444379,527.585205 3.738889,547.532104 1.305824,567.711304 
	C1.000000,535.312439 1.000000,502.624878 0.999996,469.468658 
z"/>
<path fill="#FEFEFE" opacity="1.000000" stroke="none" 
	d="
M983.828613,1064.739990 
	C976.001465,1072.264160 968.393860,1080.026245 959.800293,1086.474243 
	C942.765564,1099.255981 925.583435,1111.926147 907.712891,1123.483521 
	C892.102661,1133.579224 875.615051,1142.363159 859.247131,1151.232178 
	C829.449524,1167.378296 798.111206,1179.938110 765.773804,1189.990967 
	C755.219543,1193.272095 744.502319,1196.027954 733.874756,1199.076660 
	C733.312805,1199.237793 732.892090,1199.890991 732.702820,1200.657471 
	C699.979126,1201.000000 666.958191,1201.000000 633.468628,1201.000000 
	C639.055908,1200.335815 645.098022,1199.483887 651.169922,1199.036499 
	C708.729797,1194.795654 764.274841,1181.669434 818.019287,1160.878906 
	C876.927673,1138.090942 930.860779,1106.657104 979.814575,1066.710815 
	C980.952454,1065.782349 982.334290,1065.152710 983.828613,1064.739990 
z"/>
<path fill="#FEFEFE" opacity="1.000000" stroke="none" 
	d="
M472.178131,455.472473 
	C472.146118,423.217926 472.211761,391.422913 472.276520,359.627869 
	C472.280548,357.653137 472.277069,355.678375 472.277069,353.334473 
	C485.624664,353.334473 498.650391,353.334473 512.300476,353.334473 
	C512.300476,401.287628 512.300476,449.177612 512.401367,497.525696 
	C512.404968,499.973480 512.223206,501.963135 512.222778,503.952820 
	C512.207764,565.446777 512.210449,626.940735 512.210449,688.434692 
	C512.210449,690.391357 512.210449,692.348022 512.210449,694.836487 
	C502.385315,694.836487 493.098114,694.836487 483.810913,694.836487 
	C478.478119,694.836426 473.133789,694.624023 467.816620,694.912415 
	C464.387238,695.098450 462.511627,693.845764 460.662231,690.969238 
	C411.225922,614.077820 361.678253,537.258118 312.161224,460.418610 
	C303.141785,446.422516 294.031006,432.481903 285.252075,418.335907 
	C281.826416,412.815887 279.199890,406.799957 276.355621,401.293060 
	C277.831757,498.895691 276.500641,596.562988 277.117188,694.531494 
	C263.680756,694.531494 250.758026,694.531494 237.431458,694.531494 
	C237.431458,580.875061 237.431458,467.187469 237.431458,352.961975 
	C248.912766,352.961975 260.359039,352.933472 271.805084,352.974091 
	C277.455475,352.994110 284.082275,351.345337 288.480591,353.737122 
	C292.870544,356.124390 295.114746,362.561493 298.151489,367.317749 
	C354.691467,455.872437 411.211395,544.439941 467.723846,633.012207 
	C469.812103,636.285095 471.782837,639.633057 474.051514,643.343750 
	C470.551453,580.427307 472.981537,518.162781 472.178131,455.472473 
z"/>
<path fill="#FEFEFE" opacity="1.000000" stroke="none" 
	d="
M600.931030,584.448730 
	C600.908142,564.986572 600.985718,545.989807 600.991577,526.993042 
	C601.008911,470.995514 600.997803,414.997986 600.997803,359.000458 
	C600.997803,357.193176 600.997803,355.385925 600.997803,353.271851 
	C658.703064,353.271851 716.103149,353.271851 773.834778,353.271851 
	C773.834778,365.002716 773.834778,376.729889 773.834778,388.930878 
	C730.085449,388.930878 686.344177,388.930878 642.269287,388.930878 
	C642.269287,426.975830 642.269287,464.551788 642.269287,502.617218 
	C682.958069,502.617218 723.702454,502.617218 764.805176,502.617218 
	C764.805176,514.816345 764.805176,526.532288 764.805176,538.743164 
	C723.973083,538.743164 683.231445,538.743164 641.991089,538.743164 
	C641.991089,568.507690 641.991089,597.783386 641.981079,627.982300 
	C641.971008,638.266907 641.971008,647.628235 641.971008,656.909973 
	C652.156799,656.909973 661.584045,656.909973 671.011230,656.910034 
	C682.666870,656.996765 694.322449,657.139282 705.978210,657.158508 
	C729.636108,657.197693 753.294128,657.170227 776.952087,657.170227 
	C778.746399,657.170227 780.540710,657.170288 782.583130,657.170288 
	C782.583130,669.845154 782.583130,682.062256 782.583130,694.860107 
	C759.143372,694.860107 736.035889,694.860107 712.464600,694.933228 
	C677.219055,694.949707 642.437256,694.892944 607.655457,694.836914 
	C605.680786,694.833740 603.706055,694.836487 600.998718,694.836487 
	C600.998718,657.987854 600.998718,621.451050 600.931030,584.448730 
z"/>
<path fill="#F0EFF1" opacity="1.000000" stroke="none" 
	d="
M742.606567,894.037415 
	C748.447632,916.155884 766.259277,925.799744 790.322876,919.420349 
	C797.895935,917.412659 804.950562,913.449097 812.588867,910.235046 
	C812.588867,914.284363 812.718018,919.020325 812.490112,923.739075 
	C812.438721,924.803833 811.364990,926.142029 810.387817,926.791382 
	C792.927856,938.392090 758.189148,941.294373 740.376648,925.200012 
	C729.837891,915.677673 724.418335,903.565369 722.665161,889.840393 
	C720.150085,870.150208 723.279785,851.740479 736.244263,835.765686 
	C753.534607,814.460449 789.018677,812.109131 807.256165,831.614624 
	C816.508057,841.509766 820.028442,854.010681 820.711304,867.322693 
	C820.949158,871.958923 820.749207,876.617615 820.749207,882.034546 
	C794.392639,882.034546 768.217834,882.034546 741.272766,882.034546 
	C741.732971,886.455383 742.106506,890.043335 742.606567,894.037415 
M741.772339,864.766174 
	C743.170166,865.559692 744.562866,867.032654 745.966553,867.043091 
	C762.431580,867.165955 778.898193,867.068726 795.364441,867.031250 
	C797.471741,867.026428 799.579041,867.030640 801.648499,867.030640 
	C802.633972,846.841431 789.079346,829.213745 766.009888,835.365051 
	C751.837891,839.143982 745.025574,850.208801 741.772339,864.766174 
z"/>
<path fill="#F0EFF1" opacity="1.000000" stroke="none" 
	d="
M427.747437,916.453247 
	C449.749115,923.752258 470.380890,920.376526 490.859131,910.123962 
	C490.859131,915.437134 490.980316,920.347412 490.759033,925.242188 
	C490.713623,926.246582 489.597778,927.632202 488.619812,928.101929 
	C466.779205,938.591614 426.932617,942.445435 401.629761,922.198608 
	C384.809937,908.739624 375.977844,890.998535 373.640869,869.949890 
	C370.973450,845.925049 375.267303,823.447266 390.447479,803.934875 
	C404.899963,785.357910 424.219604,775.758545 447.537872,774.250916 
	C460.762085,773.395874 473.778351,774.850037 486.477631,778.980408 
	C490.087097,780.154297 491.473877,781.903076 491.153778,785.716553 
	C490.795319,789.987488 491.071472,794.311707 491.071472,798.448059 
	C483.525177,796.116028 476.401398,793.312439 469.015930,791.731995 
	C427.694702,782.889648 393.159790,810.980408 392.691559,853.292236 
	C392.547638,866.296997 393.802338,878.815308 399.943207,890.576294 
	C406.122650,902.411255 414.959900,911.224243 427.747437,916.453247 
z"/>
<path fill="#F0F0F1" opacity="1.000000" stroke="none" 
	d="
M517.180664,851.264526 
	C527.565002,827.855530 545.775696,817.739624 570.499023,817.791504 
	C596.186768,817.845398 614.591797,831.197327 620.849243,856.166748 
	C623.031860,864.876343 623.496277,874.349854 622.907349,883.354309 
	C621.491577,904.999817 611.638184,922.228088 591.429138,931.300659 
	C570.925293,940.505615 550.725342,938.710754 532.668762,924.473267 
	C521.444214,915.622742 515.172913,903.421875 513.365112,889.454468 
	C511.716583,876.717529 511.780670,863.837891 517.180664,851.264526 
M540.450439,847.022888 
	C528.126282,864.939087 527.942932,890.172119 539.408630,907.228394 
	C552.354187,926.486023 589.401489,927.380615 600.175720,902.589905 
	C605.143860,891.158447 605.964905,879.452637 604.326050,867.434998 
	C602.994751,857.673035 599.585632,848.605713 591.932800,841.966248 
	C577.174011,829.161743 554.536804,831.276184 540.450439,847.022888 
z"/>
<path fill="#F0EFF1" opacity="1.000000" stroke="none" 
	d="
M651.992676,916.998352 
	C651.992676,884.906616 651.992676,853.314697 651.992676,821.472046 
	C658.446472,821.472046 664.350403,821.472046 670.833313,821.472046 
	C670.833313,828.216309 670.833313,834.717957 670.833313,841.420776 
	C674.301880,836.617920 677.072632,831.886230 680.701660,827.944824 
	C687.984924,820.034912 697.366150,817.994812 707.644043,820.191162 
	C708.954834,820.471252 710.679016,822.613647 710.792786,824.008972 
	C711.183289,828.799072 710.942749,833.640564 710.942749,838.475586 
	C706.727722,837.610352 702.769958,836.242371 698.765869,836.089600 
	C689.933716,835.752563 682.993469,839.619141 678.300476,847.160095 
	C673.164978,855.412109 670.725830,864.408325 670.798157,874.178772 
	C670.931274,892.165100 670.851074,910.153076 670.859680,928.140320 
	C670.860474,929.788574 670.859802,931.436768 670.859802,933.490723 
	C664.664734,933.490723 658.761597,933.490723 651.992676,933.490723 
	C651.992676,928.316162 651.992676,922.907104 651.992676,916.998352 
z"/>
<path fill="#FEFDFE" opacity="1.000000" stroke="none" 
	d="
M123.343025,693.713745 
	C106.000771,679.118042 112.555664,653.332520 132.215240,647.103027 
	C143.738815,643.451599 156.300751,648.652100 162.655365,659.346863 
	C168.915833,669.883179 167.110474,683.183960 158.245132,691.838440 
	C149.578629,700.298828 136.370422,701.859131 126.091354,695.622925 
	C125.241096,695.106995 124.445557,694.500916 123.343025,693.713745 
z"/>
<path fill="#FEFEFE" opacity="1.000000" stroke="none" 
	d="
M137.202011,218.247589 
	C138.464188,215.934418 139.993607,213.958527 141.766235,211.720245 
	C140.496048,213.833511 138.982651,216.209198 137.202011,218.247589 
z"/>
<path fill="#FEFEFE" opacity="1.000000" stroke="none" 
	d="
M990.277405,1059.595703 
	C988.622925,1061.661621 986.703735,1063.332642 984.436890,1065.034668 
	C986.063782,1063.110596 988.038269,1061.155640 990.277405,1059.595703 
z"/>
<path fill="#FEFEFE" opacity="1.000000" stroke="none" 
	d="
M142.757965,211.378998 
	C143.412003,210.053635 144.367447,209.097183 145.640137,208.025604 
	C144.991379,209.189621 144.025375,210.468781 142.757965,211.378998 
z"/>
<path fill="#FEFEFE" opacity="1.000000" stroke="none" 
	d="
M993.680664,1055.874268 
	C993.207336,1057.042725 992.325989,1058.040283 991.217285,1059.290649 
	C991.750793,1058.263428 992.511719,1056.983276 993.680664,1055.874268 
z"/>
<path fill="#FEFEFE" opacity="1.000000" stroke="none" 
	d="
M146.261581,208.088135 
	C146.089172,207.656387 146.269531,207.352524 146.714661,206.977264 
	C146.857742,207.342575 146.736053,207.779312 146.261581,208.088135 
z"/>
<path fill="#FEFEFE" opacity="1.000000" stroke="none" 
	d="
M147.256256,207.020172 
	C147.094162,206.666855 147.283966,206.348221 147.739304,205.917572 
	C147.872604,206.222000 147.740372,206.638428 147.256256,207.020172 
z"/>
<path fill="#5C2D91" opacity="1.000000" stroke="none" 
	d="
M175.168213,177.883850 
	C175.114334,177.695282 175.300171,177.410019 175.732025,177.036987 
	C175.787994,177.228546 175.597961,177.507858 175.168213,177.883850 
z"/>
<path fill="#FEFEFE" opacity="1.000000" stroke="none" 
	d="
M995.840637,1053.967041 
	C995.986145,1054.309204 995.777771,1054.623779 995.292725,1055.017090 
	C995.172974,1054.710327 995.329834,1054.324829 995.840637,1053.967041 
z"/>
<path fill="#FEFEFE" opacity="1.000000" stroke="none" 
	d="
M994.720337,1054.956421 
	C994.918762,1055.328247 994.743347,1055.634521 994.305176,1056.015625 
	C994.143799,1055.690674 994.245117,1055.290649 994.720337,1054.956421 
z"/>
<path fill="#5C2D91" opacity="1.000000" stroke="none" 
	d="
M176.187454,176.877258 
	C176.130249,176.690216 176.311401,176.402313 176.736786,176.020630 
	C176.795944,176.210037 176.610870,176.493195 176.187454,176.877258 
z"/>
<path fill="#FEFEFE" opacity="1.000000" stroke="none" 
	d="
M911.777649,551.000000 
	C911.742310,497.181976 911.707764,443.863922 911.655945,390.545929 
	C911.655640,390.251831 911.412537,389.957977 911.087341,389.220551 
	C878.853943,389.220551 846.434082,389.220551 813.681763,389.220551 
	C813.681763,377.039398 813.681763,365.303802 813.681763,353.265076 
	C892.666260,353.265076 971.549072,353.265076 1050.717407,353.265076 
	C1050.717407,365.039703 1050.717407,376.773071 1050.717407,388.972015 
	C1017.902649,388.972015 985.167542,388.972015 951.913513,388.972015 
	C951.913513,490.974365 951.913513,592.515564 951.913513,694.450928 
	C938.369324,694.450928 925.342529,694.450928 911.777710,694.450928 
	C911.777710,646.713745 911.777710,599.106873 911.777649,551.000000 
z"/>
<path fill="#6C429C" opacity="1.000000" stroke="none" 
	d="
M670.973389,656.571289 
	C661.584045,656.909973 652.156799,656.909973 641.971008,656.909973 
	C641.971008,647.628235 641.971008,638.266907 642.063354,628.443481 
	C642.632690,628.101624 643.268311,628.065247 643.563599,628.364563 
	C652.708008,637.633728 661.819214,646.935669 670.973389,656.571289 
z"/>
<path fill="#6D439D" opacity="1.000000" stroke="none" 
	d="
M741.828430,864.316895 
	C745.025574,850.208801 751.837891,839.143982 766.009888,835.365051 
	C789.079346,829.213745 802.633972,846.841431 801.648499,867.030640 
	C799.579041,867.030640 797.471741,867.026428 795.364441,867.031250 
	C778.898193,867.068726 762.431580,867.165955 745.966553,867.043091 
	C744.562866,867.032654 743.170166,865.559692 741.828430,864.316895 
z"/>
<path fill="#6D439C" opacity="1.000000" stroke="none" 
	d="
M540.673462,846.739624 
	C554.536804,831.276184 577.174011,829.161743 591.932800,841.966248 
	C599.585632,848.605713 602.994751,857.673035 604.326050,867.434998 
	C605.964905,879.452637 605.143860,891.158447 600.175720,902.589905 
	C589.401489,927.380615 552.354187,926.486023 539.408630,907.228394 
	C527.942932,890.172119 528.126282,864.939087 540.673462,846.739624 
z"/>
</svg>