<svg version="1.1" id="Layer_1" xmlns="http://www.w3.org/2000/svg" xmlns:xlink="http://www.w3.org/1999/xlink" x="0px" y="0px"
	 width="100%" viewBox="0 0 512 512" enable-background="new 0 0 512 512" xml:space="preserve">
<path fill="#000000" opacity="1.000000" stroke="none" 
	d="
M304.000000,513.000000 
	C202.691269,513.000000 101.882530,513.000000 1.036899,513.000000 
	C1.036899,342.399567 1.036899,171.799149 1.036899,1.099354 
	C171.558746,1.099354 342.117554,1.099354 512.838196,1.099354 
	C512.838196,171.666550 512.838196,342.333252 512.838196,513.000000 
	C443.465790,513.000000 373.982880,513.000000 304.000000,513.000000 
M60.907291,342.542114 
	C64.998947,350.537018 68.752365,358.727844 73.247063,366.489349 
	C85.660347,387.924805 101.792503,406.331055 120.775948,422.126312 
	C137.595200,436.120789 156.439590,446.890289 176.658905,455.286285 
	C195.477921,463.100800 215.126648,467.846710 235.286285,469.779480 
	C247.380798,470.938995 259.678314,470.126892 271.881653,469.970123 
	C288.872223,469.751923 305.323547,466.126282 321.381378,460.944427 
	C359.494232,448.645447 391.962067,427.777557 418.350677,397.336914 
	C433.644623,379.694519 445.700287,360.234894 454.574524,338.786652 
	C467.967194,306.417938 473.326172,272.742676 470.018036,237.772903 
	C468.625061,223.047745 467.982361,208.217636 465.829620,193.607483 
	C463.479126,177.655441 460.753021,161.631134 456.444122,146.123596 
	C448.998993,119.329056 440.259674,92.892204 431.945892,66.342049 
	C429.187042,57.531639 426.067444,48.834194 422.711487,38.896748 
	C413.464661,58.049355 404.781128,76.035309 396.107910,93.999809 
	C394.288940,92.853806 392.937561,92.213638 391.837891,91.277740 
	C376.381653,78.123672 358.983643,68.188980 340.449463,60.112984 
	C315.071228,49.054779 288.405518,43.590870 260.865875,43.200752 
	C248.250748,43.022049 235.548309,44.536274 222.986588,46.096794 
	C203.770966,48.483921 185.463608,54.338661 167.944061,62.559856 
	C151.776642,70.146545 135.981445,78.537521 122.827972,90.769089 
	C110.534729,102.200706 98.128601,113.723328 87.392441,126.560944 
	C75.137962,141.214081 66.344643,158.308777 58.990486,176.018097 
	C48.836342,200.470016 43.971119,226.042969 43.084988,252.395126 
	C42.858063,259.143616 43.313557,265.967438 44.081287,272.685150 
	C45.324932,283.567078 46.268505,294.588348 48.841476,305.185974 
	C51.864849,317.638733 56.492519,329.701965 60.907291,342.542114 
z"/>
<path fill="#8BC34A" opacity="1.000000" stroke="none" 
	d="
M60.665871,342.238129 
	C56.492519,329.701965 51.864849,317.638733 48.841476,305.185974 
	C46.268505,294.588348 45.324932,283.567078 44.081287,272.685150 
	C43.313557,265.967438 42.858063,259.143616 43.084988,252.395126 
	C43.971119,226.042969 48.836342,200.470016 58.990486,176.018097 
	C66.344643,158.308777 75.137962,141.214081 87.392441,126.560944 
	C98.128601,113.723328 110.534729,102.200706 122.827972,90.769089 
	C135.981445,78.537521 151.776642,70.146545 167.944061,62.559856 
	C185.463608,54.338661 203.770966,48.483921 222.986588,46.096794 
	C235.548309,44.536274 248.250748,43.022049 260.865875,43.200752 
	C288.405518,43.590870 315.071228,49.054779 340.449463,60.112984 
	C358.983643,68.188980 376.381653,78.123672 391.837891,91.277740 
	C392.937561,92.213638 394.288940,92.853806 396.107910,93.999809 
	C404.781128,76.035309 413.464661,58.049355 422.711487,38.896748 
	C426.067444,48.834194 429.187042,57.531639 431.945892,66.342049 
	C440.259674,92.892204 448.998993,119.329056 456.444122,146.123596 
	C460.753021,161.631134 463.479126,177.655441 465.829620,193.607483 
	C467.982361,208.217636 468.625061,223.047745 470.018036,237.772903 
	C473.326172,272.742676 467.967194,306.417938 454.574524,338.786652 
	C445.700287,360.234894 433.644623,379.694519 418.350677,397.336914 
	C391.962067,427.777557 359.494232,448.645447 321.381378,460.944427 
	C305.323547,466.126282 288.872223,469.751923 271.881653,469.970123 
	C259.678314,470.126892 247.380798,470.938995 235.286285,469.779480 
	C215.126648,467.846710 195.477921,463.100800 176.658905,455.286285 
	C156.439590,446.890289 137.595200,436.120789 120.775948,422.126312 
	C101.792503,406.331055 85.660347,387.924805 73.247063,366.489349 
	C68.752365,358.727844 64.998947,350.537018 60.665871,342.238129 
M134.757828,247.296188 
	C120.666870,270.390594 115.216324,295.288818 120.038246,322.006165 
	C123.499702,341.185394 131.651993,357.693848 149.135498,368.284241 
	C152.388474,370.254700 155.380295,370.712311 158.994278,369.829926 
	C178.393585,365.093567 197.876007,360.690918 217.236542,355.803802 
	C251.985855,347.032135 285.313904,334.949188 314.823303,313.837891 
	C351.397736,287.672180 381.460785,256.099152 399.267365,214.090012 
	C399.523926,213.484741 400.101013,213.015350 401.270935,211.557312 
	C400.827240,213.860870 400.667389,214.989685 400.389679,216.088715 
	C394.654785,238.783188 384.804016,259.653168 371.648315,278.896820 
	C344.242767,318.984558 309.750854,350.936432 263.781128,368.440887 
	C242.822861,376.421387 221.034729,382.218384 199.641296,389.062958 
	C194.199371,390.804016 188.827408,392.763885 183.423309,394.623199 
	C185.040726,395.752563 186.455978,395.751129 187.871246,395.752808 
	C222.368378,395.793976 256.877686,396.399597 291.357849,395.655487 
	C310.608368,395.240051 330.035736,393.904327 348.989990,390.674622 
	C396.189514,382.632080 426.333130,354.489410 440.472870,308.944458 
	C449.625397,279.463776 450.433472,249.297836 447.573914,218.885910 
	C443.829041,179.059052 433.839966,140.591187 421.829895,102.582581 
	C421.381927,101.164886 420.791199,99.792290 420.046204,97.811699 
	C419.192505,99.071114 418.890320,99.462135 418.645325,99.886223 
	C388.477875,152.106766 342.610901,181.143738 283.681427,189.849213 
	C263.295929,192.860703 242.451797,192.647522 221.971054,195.161240 
	C185.692490,199.613892 155.765427,215.506577 134.757828,247.296188 
M166.351761,412.899261 
	C172.308182,406.341125 173.284927,399.090271 169.110519,392.419464 
	C165.495895,386.643188 158.206940,383.688232 151.769440,385.560150 
	C145.264053,387.451874 141.162262,391.811005 140.073822,398.483521 
	C138.980423,405.186432 141.499771,410.683380 147.197845,414.362396 
	C153.517319,418.442566 159.806549,417.784302 166.351761,412.899261 
z"/>
<path fill="#FFFFFE" opacity="1.000000" stroke="none" 
	d="
M134.931488,246.978333 
	C155.765427,215.506577 185.692490,199.613892 221.971054,195.161240 
	C242.451797,192.647522 263.295929,192.860703 283.681427,189.849213 
	C342.610901,181.143738 388.477875,152.106766 418.645325,99.886223 
	C418.890320,99.462135 419.192505,99.071114 420.046204,97.811699 
	C420.791199,99.792290 421.381927,101.164886 421.829895,102.582581 
	C433.839966,140.591187 443.829041,179.059052 447.573914,218.885910 
	C450.433472,249.297836 449.625397,279.463776 440.472870,308.944458 
	C426.333130,354.489410 396.189514,382.632080 348.989990,390.674622 
	C330.035736,393.904327 310.608368,395.240051 291.357849,395.655487 
	C256.877686,396.399597 222.368378,395.793976 187.871246,395.752808 
	C186.455978,395.751129 185.040726,395.752563 183.423309,394.623199 
	C188.827408,392.763885 194.199371,390.804016 199.641296,389.062958 
	C221.034729,382.218384 242.822861,376.421387 263.781128,368.440887 
	C309.750854,350.936432 344.242767,318.984558 371.648315,278.896820 
	C384.804016,259.653168 394.654785,238.783188 400.389679,216.088715 
	C400.667389,214.989685 400.827240,213.860870 401.270935,211.557312 
	C400.101013,213.015350 399.523926,213.484741 399.267365,214.090012 
	C381.460785,256.099152 351.397736,287.672180 314.823303,313.837891 
	C285.313904,334.949188 251.985855,347.032135 217.236542,355.803802 
	C197.876007,360.690918 178.393585,365.093567 158.994278,369.829926 
	C155.380295,370.712311 152.388474,370.254700 149.135498,368.284241 
	C131.651993,357.693848 123.499702,341.185394 120.038246,322.006165 
	C115.216324,295.288818 120.666870,270.390594 134.931488,246.978333 
z"/>
<path fill="#FDFEFC" opacity="1.000000" stroke="none" 
	d="
M166.069946,413.138306 
	C159.806549,417.784302 153.517319,418.442566 147.197845,414.362396 
	C141.499771,410.683380 138.980423,405.186432 140.073822,398.483521 
	C141.162262,391.811005 145.264053,387.451874 151.769440,385.560150 
	C158.206940,383.688232 165.495895,386.643188 169.110519,392.419464 
	C173.284927,399.090271 172.308182,406.341125 166.069946,413.138306 
z"/>
</svg>